<svg version="1.2" xmlns="http://www.w3.org/2000/svg" viewBox="0 0 500 500" width="500" height="500">
	<title>404-svg</title>
	<style>
		.s0 { fill: #f5f5f5 } 
		.s1 { fill: #e6e6e6 } 
		.s2 { fill: #ffa8a7 } 
		.s3 { fill: #37474f } 
		.s4 { fill: #263238 } 
		.s5 { fill: #000000 } 
		.s6 { fill: #455a64 } 
		.s7 { fill: #08344b } 
		.s8 { fill: #f28f8f } 
		.s9 { opacity: .1;fill: #000000 } 
		.s10 { opacity: .2;fill: #000000 } 
		.s11 { opacity: .5;fill: #ffffff } 
		.s12 { fill: #e0e0e0 } 
		.s13 { fill: #b16668 } 
		.s14 { fill: #ffffff } 
		.s15 { opacity: .3;fill: #000000 } 
	</style>
	<g id="freepik--Floor--inject-69">
		<path id="freepik--floor--inject-69" class="s0" d="m249 487.2c-126.3 0-228.4-53.2-228.4-118.9c0-65.8 102.1-119 228.4-119c126.4 0 228.5 53.2 228.5 119c0 65.7-102.1 118.9-228.5 118.9z" />
	</g>
	<g id="freepik--Shadows--inject-69">
		<path id="freepik--Shadow--inject-69" class="s1" d="m395.4 383.8c-33.7 0-60.9-15.7-60.9-35.2c0-19.4 27.2-35.2 60.9-35.2c33.7 0 60.9 15.8 60.9 35.2c0 19.5-27.2 35.2-60.9 35.2z" />
		<g id="freepik--shadow--inject-69">
			<path id="freepik--shadow--inject-69" class="s1" d="m150 327.7c23.3 13.5 24.3 35.7 0.9 49.2c-23.3 13.4-62 13-85.3-0.4c-23.4-13.5-23.3-35.3 0-48.8c23.3-13.4 61.1-13.4 84.4 0z" />
			<path id="freepik--shadow--inject-69" class="s1" d="m340.2 405.3l-76.5 44.1q-1 0.6-2.1 0.8q-1.1 0.3-2.3 0.3q-1.1 0-2.2-0.3q-1.1-0.2-2.1-0.8l-37.7-21.7l-34.5 19.9q-3.3 1.7-6.8 2.6q-3.6 0.8-7.2 0.8q-3.7 0-7.2-0.8q-3.6-0.9-6.8-2.6l-51.2-29.5c-4.1-2.4-6.4-5.7-6.4-9.3c0-3.5 2.3-6.8 6.4-9.2l45.3-26.2c0.5-0.3 1-0.4 1.6-0.2c0.5 0.1 0.9 0.4 1.2 0.9c0.3 0.5 0.4 1 0.2 1.6c-0.1 0.5-0.5 0.9-1 1.2l-45.4 26.2c-2.8 1.6-4.3 3.7-4.3 5.8c0 2 1.5 4.1 4.3 5.7l51.2 29.6c6.7 3.8 17.4 3.8 24 0l32.6-18.8l-34.9-20.1c-2.3-1.4-2.3-3.7 0-5l76.6-44.2q1-0.5 2.1-0.8q1.1-0.3 2.2-0.3q1.1 0 2.2 0.3q1.1 0.3 2.1 0.8l76.5 44.2c2.4 1.3 2.4 3.6 0.1 5z" />
		</g>
	</g>
	<g id="freepik--character-2--inject-69">
		<g id="freepik--Character--inject-69">
			<g id="freepik--Bottom--inject-69">
				<path id="Layer" class="s2" d="m427.6 333.8c0 1.9 1.1 17.6 0.3 22.7c-1.1 6-7.7 6.9-9-0.5c-0.6-3.5-1.7-20.4-1.8-22l-0.1-1.2c-0.5-2.9-1-6.1-2-12.4c-2.8-16.2-7.4-43.5-9.2-54.1c-1.4-8.7-5.8-31.3-8.2-40.4l-6.4 36.5c0 0 0.4 7.2 0.3 12.5c-0.1 11.1-8.3 42.3-8.7 46.1c0.4 1.8 1.5 3.1 1.5 6.3c-0.1 1.8-1.7 4.2-5.8 9.8c-1.2 1.6-2.1 7.4-3.3 9c-1.7 2.4-8 4-12 4.5c-3.8 0.5-9-1.1-6.5-4c0.8-1.1 6.6-6.1 7.4-7q1-1.1 1.9-2.4q0.9-1.2 1.7-2.5q0.8-1.3 1.4-2.7q0.7-1.3 1.2-2.8c1.2-2.9 1.6-4.2 1.6-6v-1.7c0 0-0.9-27.4-0.3-58.8c0.7-35.8 3.4-76.1 4.3-82.2l40.4-9.7c6.3 13.7 7.3 21.8 7.5 33.3c0.2 23.9 3.2 51.9 3.2 51.9c0.3 2.7 1.9 7.7 2.6 19.7c0.8 15.2-2 56.4-2 56.4z" />
				<path id="Layer" class="s3" d="m427.6 332.1c1.8 0 0.6 7.2 1.1 11.8c0.5 5 2.1 8.6 2.6 12.6q0.2 1.3 0.3 2.7q0 1.3-0.2 2.7q-0.2 1.3-0.6 2.6q-0.4 1.2-1.1 2.4c-1.2 3-7.7 7-10.2 2.8c-2.5-4.2-3-9.1-2.7-13.7c0.3-4.6 0-7.7 0.1-11.3c0.1-3.2-2.3-11.4 0.1-11.9l0.1 1.3c0.9 1.7 9.7 2 10.6-0.3z" />
				<path id="Layer" class="s4" d="m384.7 331.3c0.6 2.3 0 8.6 0 8.6c0 0-1 2.2-4.6 3.7l-1.6-8.9z" />
				<path id="Layer" class="s5" d="m380.1 343.6l-7.9-2.6l-1.8-7l8.8 4.5l0.9 5.1z" />
				<path id="Layer" class="s3" d="m376.5 325.1c4-0.2 5.9-1.5 6.4-2.5v-1.5c0.7-0.3 1.2 2.1 1.8 4.1q0.2 0.8 0.3 1.5q0.1 0.8 0.1 1.5q0 0.8-0.1 1.6q-0.1 0.7-0.3 1.4c-0.6 2.2-3.7 4.4-5 6.3c-1.3 2-1.8 6.8-3.4 9.4c-1.6 2.6-7.5 5.1-11.3 5.9c-7.8 1.7-12.7-2.4-10.2-5.5c1.9-2.4 7.6-5.4 10.5-10.8c3.2-5.8 5.6-14.4 6.6-15v1.7c0.9 1.7 2.7 2 4.6 1.9z" />
				<path id="Layer" class="s6" d="m414.7 168.6c10.3 14.4 11.3 24.7 11.7 36.7c0.4 12 0.6 43.5 1 49c0.4 5.5 2.3 12.3 2.6 20.8c0.3 9.7-1.1 32.3-1.1 32.3c0 0-1.6 2.1-7.4 2.2c-6.5 0.1-9.1-2.2-9.1-2.2c0 0-6.4-36.9-7.2-41.1c-0.8-4.2-7.5-38.7-7.5-38.7l-5.4 35.1q0.2 1.7 0.2 3.4q0.1 1.7 0.1 3.4q0 1.7-0.1 3.4q0 1.7-0.2 3.4c-0.5 8.4-4.2 20.3-4.2 20.3c0 0-2 2-8 1.7c-6-0.2-8.7-2.2-8.7-2.2c0 0-0.7-33.9 0.1-60.2c0.9-26.2 3.6-55.9 3.6-55.9z" />
				<path id="Layer" class="s3" d="m394 252l1.6-22.6l-4.7-21.9c-8-3.3-9-8.6-9-8.6c3.6 4.8 11.4 6.8 11.4 6.8l4.4 22z" />
			</g>
			<g id="freepik--Top--inject-69">
				<path id="Layer" class="s2" d="m318.6 174.5q1 0.2 2.1 0.2q1.1 0.1 2.2 0q1-0.1 2.1-0.3q1-0.2 2.1-0.5q-0.5-0.2-0.9-0.5q-0.5-0.2-0.9-0.5q-0.4-0.3-0.8-0.6q-0.4-0.3-0.8-0.6q-0.4-0.3-0.6-0.7q-0.2-0.4-0.3-0.9q0-0.4 0.1-0.8q0.1-0.5 0.4-0.9c0.4-0.3 1.3 0.6 3.4 1.2c2.6 0.7 4.6 0.9 7.1 2.4q0.4 0.2 0.8 0.3q0.4 0.2 0.8 0.2q0.4 0.1 0.8 0.1q0.4 0 0.8-0.1c6.3-1.1 20.8-8 27.5-11.5c1.3-5.6 3.7-13.8 6.6-23.9c2.7-9.4 7-13.5 13.9-13.4l-1 20.4c0 0-3.3 14.1-7.3 25.6c-0.7 2-3.6 4.3-8.8 6.2c-6.8 2.6-14.9 4.9-24.9 7.7q-1.5 0.4-3.1 0.8q-1.5 0.3-3 0.6q-1.6 0.3-3.1 0.6q-1.6 0.2-3.1 0.4c-10.6 0.9-14.6-2-16.1-4.1c-4-5.7-1.6-8.5 4-7.4z" />
				<path id="Layer" class="s7" d="m402.7 123.6l9.6 0.7q-0.6 3-0.4 6q0.2 2.9 1.1 5.8q1 2.8 2.6 5.3q1.7 2.5 4 4.5l-4.3 17.3c0.1 2.1 3.7 9.3 7.1 17c-6.4 8.7-38.1 11.6-48.4 4c1.6-8.1 2.8-14.3 3.1-17.4l-0.5-11.1c-13-10.7 2.6-26.8 8.4-32l7.2-0.3z" />
				<path id="Layer" class="s8" d="m443.2 209.7q-0.5-0.4-0.9-1q-0.4-0.5-0.7-1.1q-0.2-0.6-0.4-1.2q-0.1-0.7 0-1.4c0.1-1.6 0.5-3.6 1.2-4.4c0.6-0.7 4.9-6.5 6.7-3.1c2 3.6 1.6 5.1 1.6 5.1z" />
				<path id="Layer" class="s3" d="m430.3 286q-1.7-0.1-3.4-0.3q-1.6-0.3-3.3-0.8q-1.6-0.5-3.1-1.2q-1.5-0.7-3-1.6l-49.9-28.8c-7.7-4.4-14-15.3-14-24.2v-41.9c0-1.4-0.4-2.8-1.1-4c-0.7-1.2-1.7-2.2-2.9-2.9c-1.2-0.7-2.6-1.1-4-1.1c-1.4 0-2.8 0.4-4 1.1l-17.5 10.1c-0.4 0.3-1 0.4-1.5 0.3c-0.6-0.2-1-0.5-1.3-1c-0.3-0.5-0.3-1-0.2-1.5c0.2-0.6 0.5-1 1-1.3l17.5-10.1c1.9-1 3.9-1.6 6-1.6c2.1 0 4.2 0.6 6 1.6c1.9 1.1 3.4 2.6 4.4 4.4c1.1 1.8 1.6 3.9 1.6 6v41.9c0 7.5 5.5 17 12 20.7l50 28.9c6.4 3.7 12.3 4.3 16.6 1.8c4.4-2.5 6.8-8 6.8-15.4v-53.4c0-9.1 5.8-19.5 13.2-23.8l12.2-7c0.4-0.3 1-0.4 1.5-0.3c0.6 0.2 1 0.5 1.3 1c0.3 0.4 0.3 1 0.2 1.5c-0.2 0.5-0.5 1-1 1.2l-12.2 7c-6.1 3.5-11.2 12.8-11.2 20.3v53.5c0 8.9-3.1 15.6-8.8 18.8q-0.9 0.5-1.8 0.9q-1 0.4-2 0.7q-1 0.3-2 0.4q-1.1 0.1-2.1 0.1z" />
				<g id="freepik--Plug--inject-69">
					<path id="Layer" class="s3" d="m344 193.3v3.3c0 5.2-3.7 11.6-8.2 14.2l-30.3 17.5l-30.8-17.8v-26.7l29.9-13.8c4.7-2.2 12.2-1.9 16.8 0.8l14.4 8.3c4.5 2.6 8.2 9 8.2 14.2z" />
					<path id="Layer" class="s6" d="m304.6 170c4.7-2.2 12.2-1.8 16.8 0.8l14.4 8.3c4.5 2.6 4.3 6.5-0.4 8.7l-29.9 13.8l-30.8-17.8z" />
					<path id="Layer" class="s9" d="m308.4 195.2q0.9 0.6 1.6 1.3q0.8 0.8 1.3 1.7q0.5 1 0.8 2q0.3 1 0.4 2.1v21.9l-7 4l-30.8-17.8v-26.6l7.8-3.6z" />
					<path id="Layer" class="s3" d="m272.1 179.2q0.3-0.1 0.7-0.2q0.4-0.1 0.7 0q0.4 0 0.8 0.1q0.3 0.2 0.6 0.4l30.3 17.5q0.9 0.6 1.7 1.4q0.7 0.7 1.2 1.7q0.6 0.9 0.9 1.9q0.3 1 0.3 2.1v26.1q0.1 0.4 0 0.7q-0.1 0.4-0.2 0.8q-0.2 0.3-0.4 0.6q-0.3 0.3-0.6 0.5c-0.7 0.4-3.1 1.8-3.8 2.3q-0.4 0.1-0.8 0.2q-0.3 0-0.7 0q-0.4 0-0.8-0.2q-0.3-0.1-0.6-0.3l-30.3-17.5q-0.9-0.6-1.6-1.4q-0.8-0.7-1.3-1.7q-0.5-0.9-0.8-1.9q-0.4-1-0.4-2.1v-26.1q0-0.4 0-0.7q0.1-0.4 0.2-0.8q0.2-0.3 0.4-0.6q0.3-0.3 0.6-0.5z" />
					<path id="Layer" class="s6" d="m303 200.6q0.7 0.8 1.3 1.7q0.5 0.9 0.8 1.9q0.3 1.1 0.4 2.1v26.1c0 2.6-1.9 3.7-4.1 2.4l-30.3-17.5q-0.9-0.6-1.6-1.4q-0.8-0.7-1.3-1.7q-0.5-0.9-0.8-1.9q-0.4-1-0.4-2.1v-26.1c0-2.6 1.8-3.7 4.1-2.4l30.3 17.5q0.9 0.6 1.6 1.4z" />
					<path id="Layer" fill-rule="evenodd" class="s7" d="m266 226.7q0.4-1.5 1.2-2.8q0.7-1.3 1.8-2.4q1-1.1 2.2-1.9l25.1-14.4l2.7 1.5v17.8l-25 14.5q-0.4 0.3-0.9 0.5q-0.6 0.2-1.1 0.2q-0.5 0.1-1.1 0q-0.5-0.1-1-0.3l-2.7-1.6c-1.1-0.6-1.7-1.9-1.7-3.7v-4.5q0.1-1.5 0.5-2.9zm10.6-2.6q-0.1 0-0.3 0.1q-0.1 0-0.2 0.1q-0.1 0-0.2 0.1q-0.9 0.5-1.6 1.3q-0.7 0.7-1.2 1.6q-0.5 0.8-0.8 1.8q-0.2 1-0.3 2q0 0.1 0 0.2q0 0.1 0 0.3q0.1 0.1 0.1 0.2q0 0.1 0 0.3q0.2-0.1 0.3-0.1q0.1 0 0.3-0.1q0.1 0 0.2-0.1q0.1-0.1 0.2-0.1q0.9-0.6 1.6-1.3q0.7-0.7 1.2-1.6q0.5-0.9 0.8-1.8q0.2-1 0.3-2q0-0.1 0-0.3q0-0.1 0-0.2q-0.1-0.1-0.1-0.3q0-0.1-0.1-0.2q-0.1 0-0.2 0.1z" />
					<path id="Layer" class="s10" d="m269.8 239.3q0 0 0 0q0 0 0 0q0.1 0 0.1 0.1q0 0 0 0l-0.1-0.1l-2.6-1.5c-1.1-0.6-1.7-1.9-1.7-3.7v-4.5q0.1-0.8 0.2-1.5q0.1-0.7 0.3-1.5q0.2-0.7 0.5-1.4q0.3-0.6 0.7-1.3l2.7 1.6q-0.3 0.6-0.6 1.3q-0.3 0.7-0.6 1.4q-0.2 0.7-0.3 1.5q-0.1 0.7-0.1 1.5v4.5q-0.1 0.4 0 0.8q0 0.5 0.2 0.9q0.1 0.4 0.3 0.8q0.2 0.4 0.5 0.7q0.1 0 0.1 0.1q0.1 0 0.1 0.1q0.1 0 0.1 0.1q0.1 0 0.2 0.1z" />
					<path id="Layer" class="s11" d="m299 206.7l-25 14.5q-0.6 0.4-1.2 0.9q-0.6 0.4-1.1 1q-0.5 0.5-1 1.1q-0.4 0.6-0.8 1.3l-2.7-1.6q0.4-0.6 0.8-1.2q0.5-0.6 1-1.2q0.5-0.5 1.1-1q0.5-0.5 1.2-0.9l25-14.4z" />
					<path id="Layer" class="s11" d="m270 239.4h-0.1z" />
					<path id="Layer" class="s10" d="" />
					<path id="Layer" class="s10" d="m277 225q0-0.1 0-0.3q0-0.1 0-0.2q-0.1-0.2-0.1-0.3q0-0.1 0-0.3c1.6-0.4 2.8 0.6 2.8 2.7q0 1-0.3 1.9q-0.3 1-0.8 1.9q-0.5 0.8-1.2 1.6q-0.7 0.7-1.5 1.2c-1.8 1-3.3 0.5-3.7-1.1q0.1-0.1 0.2-0.1q0.2 0 0.3-0.1q0.1 0 0.2-0.1q0.1-0.1 0.3-0.1q0.8-0.6 1.5-1.3q0.7-0.7 1.2-1.6q0.5-0.9 0.8-1.8q0.2-1 0.3-2z" />
					<path id="Layer" fill-rule="evenodd" class="s7" d="m242.9 213.3q0.5-1.4 1.2-2.7q0.8-1.3 1.8-2.4q1-1.1 2.3-1.9l25-14.5l2.7 1.6v17.8l-25 14.5q-0.4 0.3-1 0.5q-0.5 0.2-1 0.2q-0.5 0.1-1.1 0q-0.5-0.1-1-0.4l-2.7-1.5c-1.1-0.6-1.7-1.9-1.7-3.7v-4.6q0.1-1.5 0.5-2.9zm10.6-2.6q-0.1 0.1-0.3 0.1q-0.1 0.1-0.2 0.1q-0.1 0.1-0.3 0.1q-0.8 0.6-1.5 1.3q-0.7 0.8-1.2 1.6q-0.5 0.9-0.8 1.9q-0.2 0.9-0.3 1.9q0 0.2 0 0.3q0 0.1 0 0.2q0.1 0.2 0.1 0.3q0 0.1 0 0.3q0.2-0.1 0.3-0.1q0.1-0.1 0.3-0.1q0.1-0.1 0.2-0.1q0.1-0.1 0.2-0.1q0.9-0.6 1.6-1.3q0.7-0.7 1.2-1.6q0.5-0.9 0.8-1.8q0.2-1 0.3-2q0-0.1 0-0.3q0-0.1 0-0.2q-0.1-0.2-0.1-0.3q0-0.1-0.1-0.3q-0.1 0.1-0.2 0.1z" />
					<path id="Layer" class="s10" d="m246.9 226.1h-0.1l-2.7-1.6c-1.1-0.6-1.7-1.9-1.7-3.7v-4.5q0-0.4 0.1-0.7q0-0.4 0-0.7q0.1-0.4 0.2-0.7q0.1-0.4 0.2-0.7q0.1-0.4 0.2-0.8q0.2-0.3 0.3-0.7q0.2-0.3 0.3-0.7q0.2-0.3 0.4-0.7l2.7 1.6q-0.1 0.2-0.2 0.3q-0.1 0.2-0.1 0.4q-0.1 0.2-0.2 0.3q-0.1 0.2-0.2 0.4q-0.2 0.5-0.4 1q-0.2 0.5-0.3 1.1q-0.1 0.5-0.2 1.1q-0.1 0.5-0.1 1.1v4.5q0 0.4 0 0.8q0.1 0.5 0.2 0.9q0.2 0.4 0.4 0.8q0.2 0.4 0.4 0.7q0.1 0.1 0.2 0.1q0.1 0.1 0.2 0.2q0.1 0 0.2 0.1q0.1 0.1 0.2 0.1z" />
					<path id="Layer" class="s11" d="m275.9 193.4l-25 14.5q-0.6 0.4-1.2 0.8q-0.6 0.5-1.1 1q-0.5 0.6-0.9 1.2q-0.5 0.6-0.8 1.2l-2.8-1.5q0.4-0.7 0.8-1.3q0.5-0.6 1-1.1q0.5-0.6 1-1q0.6-0.5 1.2-0.9l25-14.5z" />
					<path id="Layer" class="s11" d="m247 226.1h-0.1h0.1z" />
					<path id="Layer" class="s10" d="m253.9 211.7q0-0.1 0-0.3q0-0.1-0.1-0.2q0-0.2 0-0.3q0-0.1-0.1-0.3c1.7-0.4 2.9 0.6 2.9 2.7q0 1-0.3 1.9q-0.3 1-0.8 1.9q-0.5 0.8-1.2 1.6q-0.7 0.7-1.5 1.2c-1.8 1-3.3 0.5-3.7-1.1q0.1-0.1 0.2-0.1q0.1 0 0.3-0.1q0.1 0 0.2-0.1q0.1-0.1 0.3-0.1q0.8-0.6 1.5-1.3q0.7-0.7 1.2-1.6q0.5-0.9 0.7-1.8q0.3-1 0.4-2z" />
				</g>
				<path id="Layer" class="s12" d="m250 199.6q-0.2 0-0.5-0.1q-0.2-0.1-0.4-0.3q-0.2-0.1-0.4-0.3q-0.1-0.2-0.1-0.5l-4-15.7c-0.1-0.3-0.1-0.8 0.1-1.1c0.2-0.3 0.5-0.6 0.9-0.7c0.4-0.1 0.8 0 1.2 0.2c0.3 0.2 0.6 0.5 0.7 0.9l4 15.7q0 0.3 0 0.6q0 0.3-0.2 0.5q-0.1 0.3-0.4 0.5q-0.2 0.1-0.5 0.2q-0.1 0-0.1 0q-0.1 0-0.1 0q-0.1 0-0.1 0q-0.1 0-0.1 0.1z" />
				<path id="Layer" class="s12" d="m238.7 206.1q-0.1 0-0.2 0q-0.1-0.1-0.3-0.1q-0.1 0-0.2-0.1q-0.1-0.1-0.2-0.1l-14.9-11.8c-0.3-0.2-0.5-0.6-0.6-1c0-0.4 0.1-0.8 0.3-1.1c0.3-0.4 0.6-0.6 1.1-0.6c0.4 0 0.8 0.1 1.1 0.3l14.9 11.8q0.2 0.2 0.3 0.5q0.2 0.2 0.2 0.5q0.1 0.3 0 0.6q-0.1 0.3-0.3 0.5q-0.1 0.2-0.2 0.3q-0.2 0.1-0.3 0.1q-0.2 0.1-0.3 0.2q-0.2 0-0.4 0z" />
				<path id="Layer" class="s12" d="m218.2 220.4c-0.4 0.1-0.8-0.1-1.1-0.4c-0.2-0.2-0.4-0.6-0.4-1c0-0.4 0.1-0.8 0.4-1.1c0.2-0.3 0.6-0.4 1-0.4l17.4-1.4q0.3 0 0.6 0.1q0.3 0.1 0.5 0.3q0.2 0.1 0.4 0.4q0.1 0.3 0.1 0.6q0.1 0.3 0 0.6q-0.1 0.2-0.3 0.5q-0.2 0.2-0.5 0.3q-0.3 0.2-0.5 0.2l-17.5 1.3z" />
				<path id="Layer" class="s2" d="m454.5 206.7c-3.4 3.1-5.5 4.4-7.5 4q0-0.3 0-0.6q0.1-0.3 0.1-0.6q0-0.3 0.1-0.6q0-0.3 0.1-0.6c0.2-1.1 0.3-1.6 0.4-2c0.4-2.2 0.9-3.9 0.9-5.1q0-0.5-0.2-0.9q-0.2-0.4-0.5-0.7q-0.3-0.3-0.8-0.5q-0.4-0.1-0.8-0.1q-0.3 0.6-0.6 1.1q-0.3 0.6-0.6 1.1q-0.4 0.5-0.8 1q-0.3 0.5-0.8 0.9q-0.3 0.3-0.7 0.5q-0.5 0.2-1 0.3q-0.4 0-0.9-0.1q-0.5-0.1-0.9-0.4c-0.4-0.3 0.9-2 1.3-4.1q0.2-1.2 0.5-2.3q0.3-1.1 0.7-2.2q0.3-1.1 0.7-2.2q0.4-1 0.9-2.1q0.2-0.4 0.3-0.8q0.1-0.4 0.2-0.8q0-0.4 0-0.8q0-0.4-0.1-0.8c-1.6-6.1-11.3-22.7-12.2-24.1l-15.9-16.7c-7.3-8.7-5.1-19.5-4.1-22.1c7.4 0.2 10.1 0.7 16.4 9c2.9 3.7 5.6 6.8 9.3 12.4c2.7 3.9 6.5 8.6 8.1 11.7q1.4 3 2.7 6.1q1.3 3 2.4 6.2q1.2 3.1 2.2 6.2q0.9 3.2 1.8 6.4q0.3 1.3 0.5 2.7q0.3 1.4 0.5 2.7q0.2 1.4 0.3 2.8q0.2 1.4 0.3 2.8c0.9 6.5 0.7 10.4-2.3 13.3z" />
				<path id="Layer" class="s4" d="m380.8 95.1c0 0-2.1 3.2-4.4 3.3q-0.5 0.1-0.9 0q-0.4-0.1-0.8-0.3q-0.3-0.2-0.6-0.6q-0.2-0.4-0.3-0.8q0.2 0.3 0.6 0.3q0.3 0.1 0.7-0.1q0.3-0.1 0.4-0.5q0.2-0.3 0.1-0.6c-0.2-1.1-2.3-1.6-2.6-3.8q-0.1-0.6 0-1.1q0.1-0.6 0.4-1.1q0.2-0.6 0.6-1q0.4-0.4 0.9-0.8c0 0-5-4.6-1.3-9.7q0.8-1.1 1.9-1.9q1-0.7 2.3-1.1q1.2-0.3 2.5-0.2q1.4 0.1 2.6 0.6q0.3-1.4 1-2.6q0.8-1.2 1.9-2.1q1.2-0.8 2.5-1.2q1.4-0.4 2.8-0.3q1.5 0 2.9 0.5q1.3 0.5 2.5 1.4q1.1 0.9 1.9 2.1q0.8 1.2 1.2 2.6c0.8-1.5 6.2-3.7 10.1-0.1c4 3.6 1.8 9.7 1.8 9.7c10.1 4.1 5.8 16.8 2.8 21.4c-3.3 5-9.8 9.6-9.9 11.6z" />
				<path id="Layer" class="s2" d="m393.7 97.2c6.4 4 10.6 3.7 10.6 3.7c2.3-2.4 4.9-2.2 6.9 0c2 2.2 1 6.2-1.6 8.5c-3.2 2.8-5 0.9-5 0.9l-0.3 13.6c0 0-1 8.7-14.3 11c-5.2-3.5 0.6-10.7 0.6-10.7v-6.2c-3.2 0.5-6.5 0.9-8.1 0.1c-1.7-0.8-5-3.6-5-14.4c-0.1-12.8 2.7-17.4 5.7-18.7c1.8 4.1 4.1 8.2 10.5 12.2z" />
				<path id="Layer" class="s13" d="m390.9 110.5q0 0.3-0.1 0.6q-0.1 0.3-0.3 0.5q-0.2 0.3-0.5 0.4q-0.3 0.1-0.6 0.1c-0.6 0.1-1.2-0.3-1.5-0.8c-0.3-0.6-0.2-1.3 0.2-1.8c0.4-0.5 1.1-0.7 1.7-0.5c0.7 0.2 1.1 0.8 1.1 1.5z" />
				<path id="Layer" class="s4" d="m382.7 100c0 0.6-0.4 1.1-0.9 1.3c-0.5 0.2-1.1 0.1-1.6-0.3c-0.4-0.4-0.5-1-0.3-1.5c0.2-0.6 0.7-0.9 1.3-0.9q0.3-0.1 0.5 0.1q0.3 0.1 0.5 0.3q0.2 0.2 0.4 0.4q0.1 0.3 0.1 0.6z" />
				<path id="Layer" class="s4" d="m393.8 100.7q0 0.3-0.1 0.6q-0.1 0.3-0.3 0.5q-0.3 0.2-0.5 0.4q-0.3 0.1-0.6 0.1q-0.3 0-0.6-0.1q-0.3-0.1-0.6-0.3q-0.2-0.3-0.3-0.5q-0.1-0.3-0.1-0.6c0-0.4 0.1-0.8 0.4-1.1c0.3-0.3 0.7-0.5 1.1-0.5c0.4 0 0.8 0.1 1.1 0.4c0.3 0.3 0.4 0.7 0.4 1.1z" />
				<path id="Layer" class="s4" d="m381.9 94.9q0 0.4-0.1 0.7q0 0.4-0.3 0.6q-0.2 0.3-0.5 0.5q-0.3 0.2-0.6 0.2q-0.4 0.1-0.7 0q-0.4-0.1-0.6-0.3q-0.3-0.2-0.5-0.5l3.1-1.8q0.1 0.3 0.2 0.6z" />
				<path id="Layer" class="s4" d="m404.4 99.2v6q-0.6 0-1.2-0.2q-0.5-0.2-0.9-0.7q-0.4-0.4-0.6-0.9q-0.2-0.6-0.2-1.1q0-0.6 0.2-1.2q0.2-0.5 0.6-0.9q0.4-0.5 1-0.7q0.5-0.3 1.1-0.3z" />
				<path id="Layer" class="s8" d="m386.6 98.6l-0.6 8.6l-4.6-1.1l5.2-7.5z" />
				<path id="Layer" class="s8" d="m390.6 118c3.4-0.4 10.3-2.3 11.4-5.1q-0.1 0.5-0.4 1q-0.2 0.5-0.5 0.9q-0.4 0.5-0.7 0.9q-0.4 0.4-0.9 0.7c-2 1.8-8.9 3.7-8.9 3.7z" />
			</g>
			<g id="freepik--question-marks--inject-69">
				<path id="Layer" class="s7" d="m430.9 51.2q0.5 0.2 0.9 0.4q0.5 0.2 0.9 0.4q0.5 0.3 0.9 0.6q0.4 0.3 0.9 0.6q0.3 0.3 0.7 0.6q0.4 0.3 0.7 0.7q0.3 0.3 0.6 0.7q0.3 0.4 0.6 0.8q0.3 0.4 0.5 0.8q0.2 0.4 0.3 0.8q0.2 0.5 0.3 0.9q0.1 0.5 0.2 0.9q0.1 0.5 0.1 1q0 0.5-0.1 1q0 0.5-0.2 0.9q-0.1 0.5-0.3 1q-0.1 0.3-0.3 0.7q-0.1 0.4-0.3 0.7q-0.2 0.3-0.5 0.6q-0.2 0.4-0.5 0.6q-0.2 0.3-0.4 0.5q-0.3 0.2-0.6 0.5q-0.2 0.2-0.5 0.4q-0.3 0.1-0.6 0.3q-0.3 0.2-0.6 0.3q-0.3 0.2-0.6 0.3q-0.3 0.2-0.6 0.3q-0.3 0.1-0.6 0.2l-2.3 0.9q-0.3 0.1-0.6 0.2q-0.2 0.1-0.5 0.2q-0.2 0.1-0.5 0.2q-0.2 0.2-0.4 0.3q-0.3 0.1-0.5 0.3q-0.2 0.1-0.4 0.3q-0.2 0.1-0.3 0.3q-0.2 0.2-0.3 0.4q-0.1 0.2-0.1 0.2q-0.1 0.1-0.2 0.2q-0.1 0.1-0.2 0.2q-0.1 0-0.2 0.1q-0.1 0-0.2 0.1q-0.1 0-0.2 0q-0.1 0-0.2 0q-0.1 0-0.2-0.1l-3.1-1.1q-0.2-0.1-0.3-0.1q-0.1-0.1-0.1-0.2q-0.1-0.1-0.2-0.2q-0.1-0.1-0.1-0.2q-0.1-0.1-0.1-0.2q0-0.1 0-0.2q0-0.1 0-0.2q0-0.1 0.1-0.3q0.1-0.3 0.3-0.7q0.2-0.3 0.4-0.6q0.2-0.3 0.5-0.6q0.3-0.3 0.5-0.6q0.3-0.2 0.6-0.5q0.2-0.2 0.5-0.4q0.3-0.2 0.6-0.4q0.3-0.2 0.6-0.3q0.3-0.2 0.6-0.3q0.3-0.2 0.6-0.3q0.3-0.2 0.6-0.3q0.3-0.1 0.6-0.2q1.3-0.4 2.4-0.8q0.2-0.1 0.5-0.2q0.2-0.1 0.5-0.2q0.2-0.2 0.4-0.3q0.3-0.1 0.5-0.3q0.2-0.1 0.3-0.2q0.2-0.2 0.4-0.3q0.1-0.2 0.2-0.4q0.1-0.2 0.2-0.4q0.1-0.4 0.2-0.8q0.1-0.4 0-0.8q0-0.4-0.2-0.8q-0.1-0.4-0.3-0.7q-0.3-0.4-0.7-0.8q-0.3-0.3-0.7-0.6q-0.4-0.3-0.8-0.5q-0.5-0.2-1-0.4q-0.8-0.3-1.7-0.4q-0.8-0.1-1.7 0.2q-0.9 0.2-1.6 0.6q-0.8 0.5-1.4 1.1q-0.1 0.1-0.1 0.2q-0.1 0.1-0.2 0.1q-0.1 0.1-0.2 0.2q-0.1 0-0.2 0.1q-0.1 0-0.2 0q-0.1 0-0.2 0q-0.1 0-0.2 0q-0.1 0-0.2-0.1l-3.3-1.2q-0.1-0.1-0.2-0.1q-0.1-0.1-0.2-0.1q0-0.1-0.1-0.2q0 0-0.1-0.1q0-0.1 0-0.2q-0.1-0.1-0.1-0.2q0-0.1 0.1-0.2q0-0.1 0-0.2q0.2-0.4 0.4-0.7q0.2-0.4 0.5-0.7q0.2-0.3 0.5-0.6q0.3-0.3 0.6-0.6q0.4-0.3 0.8-0.6q0.4-0.2 0.8-0.5q0.4-0.2 0.8-0.4q0.5-0.2 0.9-0.3q0.5-0.2 1-0.3q0.5-0.2 1-0.3q0.5-0.1 1-0.1q0.6-0.1 1.1-0.1q0.5 0 1.1 0.1q0.5 0 1.1 0.1q0.5 0.1 1.1 0.2q0.5 0.2 1 0.4zm-7.1 23.9q0.1 0 0.2 0.1q0.1 0 0.2 0.1q0.1 0.1 0.1 0.2q0.1 0.1 0.1 0.2q0.1 0.1 0.1 0.2q0 0.1 0 0.3q0 0.1 0 0.2q0 0.1-0.1 0.2l-1.3 3.6q-0.1 0.1-0.1 0.2q-0.1 0.1-0.2 0.2q-0.1 0.1-0.1 0.2q-0.1 0-0.3 0.1q-0.1 0-0.2 0q-0.1 0.1-0.2 0.1q-0.1 0-0.2-0.1q-0.1 0-0.3 0l-3.5-1.4q-0.1 0-0.2-0.1q-0.1 0-0.2-0.1q-0.1-0.1-0.1-0.2q-0.1-0.1-0.1-0.2q-0.1-0.1-0.1-0.2q0-0.1 0-0.2q0-0.2 0-0.3q0-0.1 0.1-0.2l1.3-3.6q0.1-0.1 0.1-0.2q0.1-0.1 0.2-0.2q0.1-0.1 0.1-0.1q0.1-0.1 0.3-0.2q0.1 0 0.2 0q0.1 0 0.2 0q0.1 0 0.2 0q0.1 0 0.3 0z" />
				<path id="Layer" class="s7" d="m432.6 94.3q0.2 0.1 0.3 0.3q0.1 0.2 0.1 0.5q0 0.2-0.1 0.4q-0.1 0.2-0.3 0.3l-2.5 2.7q0 0.1-0.1 0.1q-0.1 0.1-0.2 0.1q-0.1 0.1-0.2 0.1q-0.1 0-0.2 0q-0.2 0-0.3 0q-0.1 0-0.2 0q-0.1-0.1-0.2-0.1q-0.1-0.1-0.1-0.2l-2.6-2.4q-0.1-0.1-0.1-0.2q-0.1-0.1-0.2-0.2q0-0.1 0-0.2q0-0.1 0-0.2q0-0.1 0-0.2q0-0.1 0-0.2q0.1-0.1 0.1-0.2q0.1-0.1 0.2-0.2l2.5-2.6q0.1-0.2 0.3-0.3q0.2-0.1 0.5-0.1q0.2 0 0.4 0.1q0.2 0.1 0.3 0.3zm15-18.2q0.4 0.4 0.7 0.7q0.3 0.4 0.6 0.8q0.3 0.3 0.6 0.7q0.3 0.4 0.5 0.8q0.2 0.4 0.4 0.8q0.2 0.5 0.4 0.9q0.2 0.4 0.3 0.9q0.1 0.4 0.2 0.8q0.1 0.5 0.1 0.9q0 0.4 0 0.9q0 0.4-0.1 0.8q-0.1 0.5-0.2 0.9q-0.2 0.8-0.6 1.5q-0.4 0.8-1 1.4q-0.5 0.6-1.2 1.1q-0.6 0.5-1.4 0.9q-0.3 0.1-0.6 0.2q-0.3 0.1-0.6 0.2q-0.3 0.1-0.6 0.2q-0.3 0-0.6 0.1q-0.3 0-0.7 0q-0.3 0.1-0.6 0.1q-0.3 0-0.6 0q-0.3 0-0.6-0.1l-2.4-0.1q-0.3 0-0.5 0q-0.3 0-0.5 0q-0.3 0-0.6 0q-0.2 0.1-0.5 0.1q-0.2 0-0.5 0.1q-0.2 0-0.4 0.1q-0.2 0.1-0.4 0.2q-0.2 0.1-0.4 0.3q-0.1 0.1-0.2 0.1q-0.1 0.1-0.2 0.1q-0.1 0-0.2 0.1q-0.1 0-0.2 0q-0.1 0-0.2 0q-0.1 0-0.2 0q-0.1-0.1-0.2-0.1q-0.1-0.1-0.2-0.2l-2.3-2.1q-0.1-0.1-0.1-0.2q-0.1-0.1-0.1-0.2q-0.1-0.1-0.1-0.2q0-0.1 0-0.2q0-0.1 0-0.2q0-0.2 0-0.3q0.1-0.1 0.1-0.1q0.1-0.1 0.2-0.2q0.3-0.3 0.5-0.5q0.3-0.2 0.6-0.4q0.3-0.2 0.7-0.4q0.3-0.2 0.6-0.3q0.3-0.1 0.7-0.2q0.3-0.1 0.6-0.2q0.3-0.1 0.6-0.1q0.4-0.1 0.7-0.1q0.3 0 0.6 0q0.3-0.1 0.6-0.1q0.4 0 0.7 0.1q0.3 0 0.6 0q1.3 0.1 2.3 0.2q0.3 0 0.6 0q0.2 0 0.5-0.1q0.2 0 0.5 0q0.2 0 0.4-0.1q0.3 0 0.5-0.1q0.2 0 0.4-0.1q0.1-0.1 0.3-0.3q0.2-0.1 0.3-0.2q0.3-0.3 0.5-0.6q0.2-0.4 0.3-0.7q0.1-0.4 0.1-0.8q0-0.3 0-0.7q-0.1-0.5-0.3-0.9q-0.2-0.4-0.4-0.8q-0.2-0.5-0.5-0.8q-0.3-0.4-0.7-0.7q-0.6-0.6-1.3-0.9q-0.8-0.4-1.6-0.5q-0.8-0.2-1.7-0.1q-0.8 0.2-1.6 0.5q0 0.1-0.1 0.1q-0.1 0-0.2 0.1q-0.1 0-0.2 0q-0.1 0-0.2 0q-0.1 0-0.2 0q-0.1 0-0.2-0.1q-0.1 0-0.2-0.1q-0.1-0.1-0.1-0.1l-2.5-2.4q0 0-0.1-0.1q0 0-0.1-0.1q0-0.1 0-0.2q-0.1-0.1-0.1-0.2q0-0.1 0.1-0.1q0-0.1 0-0.2q0-0.1 0.1-0.2q0-0.1 0.1-0.1q0.3-0.3 0.6-0.5q0.3-0.3 0.6-0.5q0.4-0.2 0.7-0.3q0.4-0.2 0.8-0.3q0.4-0.1 0.8-0.2q0.5-0.1 0.9-0.1q0.5-0.1 0.9-0.1q0.5 0 0.9 0q0.5 0.1 1 0.1q0.5 0.1 0.9 0.2q0.5 0.1 1 0.3q0.5 0.1 0.9 0.3q0.5 0.2 1 0.4q0.4 0.3 0.9 0.5q0.4 0.3 0.8 0.7q0.4 0.3 0.8 0.6z" />
				<g id="Layer" style="opacity: .6">
					<path id="Layer" class="s14" d="m432.6 94.3q0.2 0.1 0.3 0.3q0.1 0.2 0.1 0.5q0 0.2-0.1 0.4q-0.1 0.2-0.3 0.3l-2.5 2.7q0 0.1-0.1 0.1q-0.1 0.1-0.2 0.1q-0.1 0.1-0.2 0.1q-0.1 0-0.2 0q-0.2 0-0.3 0q-0.1 0-0.2 0q-0.1-0.1-0.2-0.1q-0.1-0.1-0.1-0.2l-2.6-2.4q-0.1-0.1-0.1-0.2q-0.1-0.1-0.2-0.2q0-0.1 0-0.2q0-0.1 0-0.2q0-0.1 0-0.2q0-0.1 0-0.2q0.1-0.1 0.1-0.2q0.1-0.1 0.2-0.2l2.5-2.6q0.1-0.2 0.3-0.3q0.2-0.1 0.5-0.1q0.2 0 0.4 0.1q0.2 0.1 0.3 0.3zm15-18.2q0.4 0.4 0.7 0.7q0.3 0.4 0.6 0.8q0.3 0.3 0.6 0.7q0.3 0.4 0.5 0.8q0.2 0.4 0.4 0.8q0.2 0.5 0.4 0.9q0.2 0.4 0.3 0.9q0.1 0.4 0.2 0.8q0.1 0.5 0.1 0.9q0 0.4 0 0.9q0 0.4-0.1 0.8q-0.1 0.5-0.2 0.9q-0.2 0.8-0.6 1.5q-0.4 0.8-1 1.4q-0.5 0.6-1.2 1.1q-0.6 0.5-1.4 0.9q-0.3 0.1-0.6 0.2q-0.3 0.1-0.6 0.2q-0.3 0.1-0.6 0.2q-0.3 0-0.6 0.1q-0.3 0-0.7 0q-0.3 0.1-0.6 0.1q-0.3 0-0.6 0q-0.3 0-0.6-0.1l-2.4-0.1q-0.3 0-0.5 0q-0.3 0-0.5 0q-0.3 0-0.6 0q-0.2 0.1-0.5 0.1q-0.2 0-0.5 0.1q-0.2 0-0.4 0.1q-0.2 0.1-0.4 0.2q-0.2 0.1-0.4 0.3q-0.1 0.1-0.2 0.1q-0.1 0.1-0.2 0.1q-0.1 0-0.2 0.1q-0.1 0-0.2 0q-0.1 0-0.2 0q-0.1 0-0.2 0q-0.1-0.1-0.2-0.1q-0.1-0.1-0.2-0.2l-2.3-2.1q-0.1-0.1-0.1-0.2q-0.1-0.1-0.1-0.2q-0.1-0.1-0.1-0.2q0-0.1 0-0.2q0-0.1 0-0.2q0-0.2 0-0.3q0.1-0.1 0.1-0.1q0.1-0.1 0.2-0.2q0.3-0.3 0.5-0.5q0.3-0.2 0.6-0.4q0.3-0.2 0.7-0.4q0.3-0.2 0.6-0.3q0.3-0.1 0.7-0.2q0.3-0.1 0.6-0.2q0.3-0.1 0.6-0.1q0.4-0.1 0.7-0.1q0.3 0 0.6 0q0.3-0.1 0.6-0.1q0.4 0 0.7 0.1q0.3 0 0.6 0q1.3 0.1 2.3 0.2q0.3 0 0.6 0q0.2 0 0.5-0.1q0.2 0 0.5 0q0.2 0 0.4-0.1q0.3 0 0.5-0.1q0.2 0 0.4-0.1q0.1-0.1 0.3-0.3q0.2-0.1 0.3-0.2q0.3-0.3 0.5-0.6q0.2-0.4 0.3-0.7q0.1-0.4 0.1-0.8q0-0.3 0-0.7q-0.1-0.5-0.3-0.9q-0.2-0.4-0.4-0.8q-0.2-0.5-0.5-0.8q-0.3-0.4-0.7-0.7q-0.6-0.6-1.3-0.9q-0.8-0.4-1.6-0.5q-0.8-0.2-1.7-0.1q-0.8 0.2-1.6 0.5q0 0.1-0.1 0.1q-0.1 0-0.2 0.1q-0.1 0-0.2 0q-0.1 0-0.2 0q-0.1 0-0.2 0q-0.1 0-0.2-0.1q-0.1 0-0.2-0.1q-0.1-0.1-0.1-0.1l-2.5-2.4q0 0-0.1-0.1q0 0-0.1-0.1q0-0.1 0-0.2q-0.1-0.1-0.1-0.2q0-0.1 0.1-0.1q0-0.1 0-0.2q0-0.1 0.1-0.2q0-0.1 0.1-0.1q0.3-0.3 0.6-0.5q0.3-0.3 0.6-0.5q0.4-0.2 0.7-0.3q0.4-0.2 0.8-0.3q0.4-0.1 0.8-0.2q0.5-0.1 0.9-0.1q0.5-0.1 0.9-0.1q0.5 0 0.9 0q0.5 0.1 1 0.1q0.5 0.1 0.9 0.2q0.5 0.1 1 0.3q0.5 0.1 0.9 0.3q0.5 0.2 1 0.4q0.4 0.3 0.9 0.5q0.4 0.3 0.8 0.7q0.4 0.3 0.8 0.6z" />
				</g>
			</g>
		</g>
	</g>
	<g id="freepik--character-1--inject-69">
		<g id="freepik--character--inject-69">
			<g id="freepik--bottom--inject-69">
				<path id="Layer" class="s2" d="m77.2 321.7l14 3.6l-3 21c-4 1.4-8.2 1.3-11.4-0.6z" />
				<path id="Layer" class="s4" d="m99.4 365.8c0.3 0.4 0.1 3-0.3 3.6c-0.4 0.6-2.8 2.6-7.3 2.7c-4.2 0-8-0.7-10.3-2.4c-2.4-1.8-3.5-3.5-3.6-6c-0.1-2.4 0.3-4.7-0.8-6.6c-1-1.9-2.3-3.5-2.6-4.4q-0.1-0.7-0.2-1.3q-0.1-0.7-0.1-1.3q0-0.7 0.1-1.3q0.1-0.7 0.2-1.3z" />
				<path id="Layer" class="s7" d="m89.1 345.4q0 0.4 0.1 0.7q0 0.4 0 0.7q0.1 0.3 0.2 0.7q0 0.3 0.1 0.6q0.2 0.7 0.5 1.4q0.2 0.7 0.5 1.4q0.3 0.7 0.6 1.4q0.3 0.6 0.7 1.3q0.2 0.3 0.4 0.6q0.2 0.4 0.4 0.7q0.2 0.3 0.4 0.6q0.2 0.3 0.4 0.6c1.2 1.6 2.7 3 4 4.5q0.5 0.5 0.9 1.1q0.5 0.7 0.8 1.3q0.3 0.7 0.4 1.4q0.2 0.8 0.3 1.5c0 3.3-3.7 4.3-6.5 4.6q-1.1 0.1-2.3 0.1q-1.1 0-2.2-0.1q-1.2-0.1-2.3-0.3q-1.1-0.3-2.2-0.6q-1.1-0.4-2.1-1.1q-1-0.6-1.7-1.6q-0.8-0.9-1.3-2q-0.4-1.1-0.6-2.3c-0.1-0.9 0-1.8 0-2.8q-0.1-0.7-0.3-1.5q-0.2-0.8-0.5-1.6q-0.3-0.7-0.7-1.4q-0.3-0.7-0.8-1.4q-0.3-0.4-0.5-0.8q-0.3-0.4-0.5-0.8q-0.2-0.4-0.4-0.8q-0.2-0.4-0.4-0.8c-0.8-2.1 0.1-4.4 0.7-6.4c0.6-1.7 1-3.8 1.7-3.6c0 0.3 0 1.1 0 1.1c0.2 0.4 0.6 0.7 0.7 1.1q0 0.2 0.1 0.4q0 0.2 0.1 0.3q0 0.2 0.1 0.4q0.1 0.2 0.1 0.3q0.1 0.3 0.3 0.5q0.1 0.3 0.3 0.5q0.2 0.2 0.4 0.4q0.2 0.2 0.4 0.3q0.2-1.9 0.3-3.7q0-0.3 0.1-0.6q0.1-0.3 0.3-0.5q0.2-0.2 0.5-0.3q0.3-0.1 0.6-0.1q0.8-0.2 1.7-0.3q0.9-0.1 1.8-0.1q0.9 0 1.8 0q0.9 0.1 1.8 0.2q0.1 0 0.2 0q0.2 0.1 0.3 0.1q0.1 0.1 0.2 0.2q0.1 0 0.2 0.1q0 0.1 0.1 0.3q0 0.1 0 0.2q0 0.1 0 0.2q0 0.1 0 0.2q0 0.4-0.1 0.9q0 0.4 0 0.9q-0.1 0.4-0.1 0.9q0 0.4 0 0.8z" />
				<path id="Layer" class="s10" d="m89.1 345.4q0 0.4 0.1 0.7q0 0.4 0 0.7q0.1 0.3 0.2 0.7q0 0.3 0.1 0.6q0.2 0.7 0.5 1.4q0.2 0.7 0.5 1.4q0.3 0.7 0.6 1.4q0.3 0.6 0.7 1.3q0.2 0.3 0.4 0.6q0.2 0.4 0.4 0.7q0.2 0.3 0.4 0.6q0.2 0.3 0.4 0.6c1.2 1.6 2.7 3 4 4.5q0.5 0.5 0.9 1.1q0.5 0.7 0.8 1.3q0.3 0.7 0.4 1.4q0.2 0.8 0.3 1.5c0 3.3-3.7 4.3-6.5 4.6q-1.1 0.1-2.3 0.1q-1.1 0-2.2-0.1q-1.2-0.1-2.3-0.3q-1.1-0.3-2.2-0.6q-1.1-0.4-2.1-1.1q-1-0.6-1.7-1.6q-0.8-0.9-1.3-2q-0.4-1.1-0.6-2.3c-0.1-0.9 0-1.8 0-2.8q-0.1-0.7-0.3-1.5q-0.2-0.8-0.5-1.6q-0.3-0.7-0.7-1.4q-0.3-0.7-0.8-1.4q-0.3-0.4-0.5-0.8q-0.3-0.4-0.5-0.8q-0.2-0.4-0.4-0.8q-0.2-0.4-0.4-0.8c-0.8-2.1 0.1-4.4 0.7-6.4c0.6-1.7 1-3.8 1.7-3.6c0 0.3 0 1.1 0 1.1c0.2 0.4 0.6 0.7 0.7 1.1q0 0.2 0.1 0.4q0 0.2 0.1 0.3q0 0.2 0.1 0.4q0.1 0.2 0.1 0.3q0.1 0.3 0.3 0.5q0.1 0.3 0.3 0.5q0.2 0.2 0.4 0.4q0.2 0.2 0.4 0.3q0.2-1.9 0.3-3.7q0-0.3 0.1-0.6q0.1-0.3 0.3-0.5q0.2-0.2 0.5-0.3q0.3-0.1 0.6-0.1q0.8-0.2 1.7-0.3q0.9-0.1 1.8-0.1q0.9 0 1.8 0q0.9 0.1 1.8 0.2q0.1 0 0.2 0q0.2 0.1 0.3 0.1q0.1 0.1 0.2 0.2q0.1 0 0.2 0.1q0 0.1 0.1 0.3q0 0.1 0 0.2q0 0.1 0 0.2q0 0.1 0 0.2q0 0.4-0.1 0.9q0 0.4 0 0.9q-0.1 0.4-0.1 0.9q0 0.4 0 0.8z" />
				<path id="Layer" class="s6" d="m92.2 354.3c-1.2-1-3.9-1.2-5.5-1.1q-0.5 0-1.1 0.1q-0.6 0.1-1.1 0.3q-0.6 0.1-1.1 0.4q-0.5 0.2-1 0.5q-0.2 0.1-0.3 0.1q-0.2 0-0.4 0q-0.1 0-0.3-0.1q-0.2-0.1-0.3-0.2q-0.1-0.1-0.2-0.3q0-0.2 0-0.4q0-0.2 0.1-0.4q0.1-0.2 0.3-0.3q0.5-0.3 1.1-0.6q0.6-0.3 1.2-0.5q0.7-0.2 1.3-0.3q0.7-0.1 1.3-0.1c3.8-0.1 4.8 0.6 4.8 0.6c0 0 1.6 1.2 1.2 2.3z" />
				<path id="Layer" class="s6" d="m94.9 357.8c-1.5-1-4.6-1-6.1-0.9q-0.6 0-1.1 0.1q-0.6 0.1-1.1 0.3q-0.6 0.1-1.1 0.4q-0.5 0.2-0.9 0.5q-0.2 0.1-0.4 0.2q-0.1 0-0.3 0q-0.2-0.1-0.3-0.1q-0.2-0.1-0.3-0.2q-0.2-0.2-0.2-0.4q-0.1-0.2-0.1-0.4q0.1-0.2 0.2-0.4q0.1-0.1 0.3-0.2q0.5-0.4 1.1-0.7q0.6-0.3 1.2-0.5q0.7-0.2 1.3-0.4q0.7-0.1 1.4-0.1c3.7-0.1 4.6 0.7 4.6 0.7q0.3 0.2 0.6 0.4q0.3 0.2 0.5 0.5q0.3 0.3 0.4 0.6q0.2 0.3 0.3 0.6z" />
				<path id="Layer" class="s6" d="m84.9 347.8q0.6-0.1 1.2-0.1q0.6 0 1.2 0.1q0.6 0.1 1.2 0.2q0.5 0.2 1.1 0.4c0.6 0.4 1 1.4 0.6 1.7q-0.5-0.2-1-0.4q-0.6-0.2-1.1-0.3q-0.5-0.1-1-0.1q-0.6 0-1.1 0q-0.5 0-1 0.1q-0.6 0.1-1.1 0.2q-0.5 0.1-1 0.2q-0.5 0.2-1 0.4c-0.3 0.1-0.7 0.3-1 0.4q-0.1 0.1-0.3 0.1q-0.2 0.1-0.4 0q-0.1-0.1-0.3-0.2q-0.1-0.1-0.2-0.3q0-0.1 0-0.3q0-0.1 0-0.3q0.1-0.1 0.2-0.2q0.1-0.1 0.2-0.2q0.6-0.3 1.1-0.5q0.6-0.3 1.2-0.5q0.6-0.2 1.3-0.3q0.6-0.1 1.2-0.2z" />
				<path id="Layer" class="s2" d="m114.4 316.3l14.8 1.4l-0.9 20.8c-5.8 3.5-9.6 5.4-12-0.7z" />
				<path id="Layer" class="s4" d="m150.7 352.5q0.1 0.4 0.1 0.8q0.1 0.3 0 0.7q0 0.4-0.1 0.8q-0.2 0.3-0.3 0.7c-0.5 0.8-5.1 3.1-11.2 2.4q-1.6-0.2-3.3-0.7q-1.6-0.4-3.2-1q-1.5-0.7-3-1.5q-1.5-0.9-2.8-1.9c-2.2-1.7-4.6-2.1-7.6-2.4c-3-0.4-5.3-1.4-5.8-2.8c-0.6-1.5 0.3-3.9 0.3-3.9z" />
				<path id="Layer" class="s7" d="m127.1 333.3q0.2 0 0.4-0.1q0.2 0 0.4-0.1q0.2-0.1 0.4-0.1q0.2-0.1 0.4-0.2q0.1 0 0.3 0q0.1 0 0.2 0q0.1 0 0.2 0q0.1 0 0.2 0c0.4 0.2 0.6 0.7 0.6 1q0.1 0.4 0.1 0.7q0.1 0.4 0.1 0.7q0.1 0.3 0.2 0.7q0.1 0.3 0.2 0.6q0.1 0.3 0.3 0.5q0.2 0.3 0.4 0.5q0.2 0.3 0.4 0.5q0.2 0.2 0.5 0.4q0.5 0.5 1.1 0.9q0.5 0.5 1.1 0.9q0.6 0.4 1.2 0.8q0.6 0.4 1.2 0.8c2 1.2 3.9 2.1 5.9 3.1c2 1 4.8 1.8 6.3 3c2.3 1.8 2.4 5.8-0.4 7.3c-2.4 1.2-8.6 2.4-15 0.2c-3.5-1.2-7.2-5.2-11.8-5.8c-2.9-0.4-6.8-0.8-8.6-3.2c-0.6-1 0-3.9 0.5-7.2c0.5-3 0.9-7.8 1.9-7.5v0.9l1.2 1.4q0.1 0.1 0.2 0.2q0.1 0.1 0.2 0.2q0.1 0.1 0.2 0.2q0.1 0.1 0.2 0.2q0.1 0.1 0.3 0.3q0.1 0.1 0.2 0.2q0.1 0.2 0.3 0.3q0.1 0.1 0.2 0.2q0.2 0.2 0.4 0.3q0.2 0.1 0.4 0.2q0.2 0.1 0.5 0.2q0.2 0 0.4 0q0.1 0.1 0.2 0q0.1 0 0.2 0q0.2 0 0.3 0q0.1-0.1 0.2-0.1c0.5-0.3 0.5-1 1-1.4q0.1-0.2 0.3-0.3q0.2-0.2 0.4-0.3q0.2-0.2 0.4-0.3q0.3-0.1 0.5-0.2q0.3-0.1 0.6-0.2q0.4-0.1 0.7-0.2q0.3 0 0.7-0.1q0.3 0 0.7 0q0 0 0.1 0q0-0.1 0.1-0.1q0.1 0 0.1 0q0.1 0 0.1 0z" />
				<path id="Layer" class="s10" d="m127.1 333.3q0.2 0 0.4-0.1q0.2 0 0.4-0.1q0.2-0.1 0.4-0.1q0.2-0.1 0.4-0.2q0.1 0 0.3 0q0.1 0 0.2 0q0.1 0 0.2 0q0.1 0 0.2 0c0.4 0.2 0.6 0.7 0.6 1q0.1 0.4 0.1 0.7q0.1 0.4 0.1 0.7q0.1 0.3 0.2 0.7q0.1 0.3 0.2 0.6q0.1 0.3 0.3 0.5q0.2 0.3 0.4 0.5q0.2 0.3 0.4 0.5q0.2 0.2 0.5 0.4q0.5 0.5 1.1 0.9q0.5 0.5 1.1 0.9q0.6 0.4 1.2 0.8q0.6 0.4 1.2 0.8c2 1.2 3.9 2.1 5.9 3.1c2 1 4.8 1.8 6.3 3c2.3 1.8 2.4 5.8-0.4 7.3c-2.4 1.2-8.6 2.4-15 0.2c-3.5-1.2-7.2-5.2-11.8-5.8c-2.9-0.4-6.8-0.8-8.6-3.2c-0.6-1 0-3.9 0.5-7.2c0.5-3 0.9-7.8 1.9-7.5v0.9l1.2 1.4q0.1 0.1 0.2 0.2q0.1 0.1 0.2 0.2q0.1 0.1 0.2 0.2q0.1 0.1 0.2 0.2q0.1 0.1 0.3 0.3q0.1 0.1 0.2 0.2q0.1 0.2 0.3 0.3q0.1 0.1 0.2 0.2q0.2 0.2 0.4 0.3q0.2 0.1 0.4 0.2q0.2 0.1 0.5 0.2q0.2 0 0.4 0q0.1 0.1 0.2 0q0.1 0 0.2 0q0.2 0 0.3 0q0.1-0.1 0.2-0.1c0.5-0.3 0.5-1 1-1.4q0.1-0.2 0.3-0.3q0.2-0.2 0.4-0.3q0.2-0.2 0.4-0.3q0.3-0.1 0.5-0.2q0.3-0.1 0.6-0.2q0.4-0.1 0.7-0.2q0.3 0 0.7-0.1q0.3 0 0.7 0q0 0 0.1 0q0-0.1 0.1-0.1q0.1 0 0.1 0q0.1 0 0.1 0z" />
				<path id="Layer" class="s6" d="m132.8 340q-0.8 0.1-1.6 0.3q-0.8 0.3-1.5 0.7q-0.7 0.3-1.3 0.8q-0.2 0.2-0.3 0.2q-0.2 0.1-0.4 0.1q-0.1 0-0.3-0.1q-0.2 0-0.3-0.1q-0.2-0.1-0.4-0.4q-0.1-0.2-0.1-0.5q0-0.2 0.1-0.5q0.1-0.2 0.3-0.4c1.6-1.1 4-2 5.3-1.7q0.3 0.1 0.7 0.2q0.3 0.1 0.5 0.3q0.3 0.3 0.5 0.5q0.3 0.3 0.4 0.6q-0.8-0.1-1.6 0z" />
				<path id="Layer" class="s6" d="m136.5 342.5q-0.9 0-1.8 0.3q-1 0.2-1.8 0.7q-0.8 0.5-1.5 1.1q-0.2 0.1-0.3 0.2q-0.2 0-0.3 0q-0.2 0-0.4 0q-0.1 0-0.2-0.1q-0.3-0.2-0.4-0.4q-0.1-0.2-0.1-0.5q0-0.3 0.1-0.5q0.1-0.2 0.4-0.4q0.6-0.4 1.3-0.8q0.7-0.3 1.4-0.5q0.7-0.3 1.5-0.4q0.7-0.1 1.5-0.1q0.4 0 0.7 0.1q0.4 0.1 0.7 0.3q0.4 0.2 0.6 0.5q0.3 0.3 0.5 0.6q-0.9-0.2-1.9-0.1z" />
				<path id="Layer" class="s6" d="m141 344.8q-0.9 0.1-1.8 0.4q-0.9 0.3-1.7 0.8q-0.8 0.4-1.5 1.1q-0.1 0.1-0.3 0.2q-0.1 0-0.3 0q-0.1 0-0.3 0q-0.2 0-0.3-0.1q-0.2-0.2-0.4-0.4q-0.1-0.2-0.1-0.5q0-0.3 0.1-0.5q0.1-0.2 0.3-0.4q0.6-0.4 1.3-0.8q0.7-0.3 1.4-0.5q0.7-0.3 1.4-0.4q0.7-0.1 1.5-0.1q0.3 0 0.7 0.1q0.4 0.1 0.7 0.3q0.4 0.1 0.6 0.4q0.3 0.2 0.6 0.5q-1-0.1-1.9-0.1z" />
				<path id="Layer" class="s6" d="m76.4 289.4c0.5-10.1 2.6-15.3 2.9-18.1c0 0 0.8-55.4 2.2-72.2l49.6-2.1c0.7 18 1.4 66.4 1 72.8c-0.4 6.1-2.9 59.3-2.9 59.3c-7 2.1-14.5-1-14.5-1c0 0-4.1-30.3-4.8-37q-0.2-2.2-0.2-4.5q-0.1-2.2 0-4.5q0-2.2 0.2-4.5q0.2-2.2 0.5-4.5l-3.2-43c0 0-3.8 33.4-5.7 46c-2.2 14.4-11.5 59-11.5 59c-6.7 1.7-13.2-1.2-13.2-1.2c0 0-1-29.9-0.4-44.5z" />
				<path id="Layer" class="s3" d="m107.2 230.1l0.9-5.9c2.9-0.5 10.3-5 14.6-9q-1.2 1.7-2.5 3.3q-1.4 1.6-2.9 3q-1.5 1.4-3.2 2.6q-1.7 1.3-3.6 2.3l-0.1 46.7z" />
			</g>
			<g id="freepik--top--inject-69">
				<path id="Layer" class="s2" d="m127.5 167.8c-3.3-7.7-9.1-20.6-9.1-20.6l-1.5-21q0.8 0 1.6 0q0.8 0.1 1.6 0.2q0.8 0 1.6 0.1q0.8 0.1 1.6 0.2c3.1 0.5 8.1 3.5 10.4 9.1c1.6 4.2 10.4 29.6 10.4 29.6l15.3-8c3.9-2.5 5.3-6.6 7.8-9c2.5-2.4 5-2.8 7.8-4.7c2.8-1.9 3.9-3.4 4.6-1.5c0.7 1.9-2.4 4.8-3 5.6c-0.6 0.7-3.6 2.3 0.2 2.5c3.8 0.2 11.6-3.6 13.5-4.2c1.8-0.7 1.7 1.5 0.7 2.9c-1 1.4-1.1 5.4-2.7 7.7c-1.7 2.4-2.6 3.4-6.3 4.8c-3.5 1.3-10.6 1.7-14.2 3.8c-3.7 2.1-12.6 10.1-18.5 14.2c-7.9 5.5-12.4 5.9-15.5 1.5c-3.1-4.4-5.1-10.5-6.3-13.2z" />
				<path id="Layer" class="s12" d="m114.8 125.7c5.2-0.4 11.4-0.1 14.8 3c2.7 2.5 3.7 4 6.7 12.6c2 5.7 6.3 18.9 6.3 18.9q-2.2 0.5-4.3 1.3q-2.1 0.9-4 2q-1.9 1.2-3.6 2.7q-1.7 1.5-3.1 3.2l-9.8-21.9z" />
				<path id="Layer" class="s8" d="m144.1 165.4q-1 0.3-1.9 0.8q-0.9 0.5-1.7 1.2q-0.8 0.6-1.6 1.4q-0.7 0.7-1.2 1.6c-0.4 0.6 0.3-4 6-6.4z" />
				<path id="Layer" class="s0" d="m113.8 125.7c11.5 0.7 14.8 6 17 17.1c1.5 7.4 0.8 58.6 0.8 58.6c-14.7 10.8-45 6.5-50.6 0c0 0 1.6-22.3 0.9-29.6c-0.8-7.3-5.7-26-3.8-34.3c0.6-2.6 1.6-7.1 4.2-8.4c0 0 8.2-2.3 12.8-3.5q0.9-0.3 1.8-0.4q0.9-0.2 1.8-0.3q0.9-0.1 1.8-0.1q1-0.1 1.9 0z" />
				<path id="Layer" class="s4" d="m108.9 97.3l-3.3 1.8q-0.2-0.3-0.2-0.7q-0.1-0.4 0-0.8q0.1-0.3 0.4-0.6q0.2-0.3 0.5-0.5q0.4-0.2 0.7-0.2q0.4-0.1 0.8 0q0.3 0.2 0.6 0.4q0.3 0.2 0.5 0.6z" />
				<path id="Layer" class="s4" d="m123.2 98.6l-3-2.3q0.2-0.3 0.5-0.5q0.3-0.2 0.7-0.3q0.4 0 0.7 0.1q0.4 0.1 0.7 0.3q0.3 0.2 0.5 0.6q0.2 0.3 0.2 0.7q0.1 0.3 0 0.7q-0.1 0.4-0.3 0.7z" />
				<path id="Layer" class="s4" d="m98.8 90.8c0 0 1 1.9 0.5 6.6c-0.3 3.6-3.6 8-3.6 8l0.3 5l0.2 7.2q-0.4-0.1-0.8-0.3q-0.4-0.2-0.8-0.5q-0.3-0.3-0.6-0.6q-0.3-0.4-0.5-0.7q-0.6-1.4-1.2-2.8q-0.5-1.4-1-2.9q-0.5-1.4-0.9-2.9q-0.4-1.4-0.7-2.9c-1.5-6.1-1.9-11.7-0.8-14c1.3-2.7 4.8-3.2 4.8-3.2z" />
				<path id="Layer" class="s4" d="m100.5 88.6c0.6-1.6 1.6-3.1 2.9-4.3c1.2-1.3 2.7-2.3 4.3-3c1.6-0.7 3.4-1 5.2-1c7.4-0.1 13 5.9 13.1 13.4c0.1 7.4-5.5 13.6-13 13.6c-1.8 0-3.5-0.4-5.2-1c-1.6-0.7-3.1-1.7-4.4-2.9c-1.2-1.3-2.2-2.8-2.9-4.4c-0.7-1.7-1-3.4-1-5.2c-0.1-1.8 0.3-3.5 1-5.2z" />
				<path id="Layer" class="s2" d="m98.8 90.6c7.8-4.9 20.7-5.4 24.4-2.5c2.3 11.2 1.6 20.9 0 26.7c-1 3.6-2.7 6.1-6 6.6q-0.7 0.1-1.5 0.1q-0.8 0-1.5-0.1q-0.8 0-1.6-0.1q-0.7-0.1-1.5-0.2v5c2.7 3.1 1.9 6.8-1.8 7.2c-3.6 0.4-10.4 0.6-14.2-6.3v-16q-0.4 0.5-0.9 0.9q-0.5 0.3-1 0.5q-0.6 0.2-1.2 0.2q-0.7 0-1.2-0.2c-2.6-1-5.7-6.1-4-9.6c1.6-3.5 4.9-2.1 6-1c1 1.1 2 3.8 3.2 2.7c1.2-1 3.4-3.8 2.8-13.9z" />
				<path id="Layer" class="s4" d="m126.5 81.4q0.1-0.1 0.1-0.1q0.1 0 0.1 0q0.1 0 0.2 0q0 0 0.1 0c0.3 0.1 0.4 0.5 0.4 0.8q0 0.9-0.2 1.8q-0.2 0.9-0.5 1.7q-0.3 0.9-0.8 1.6q-0.5 0.8-1.1 1.5c-1.9 2-4.5 2.7-7.1 3.5c-3 0.9-6.7 0.5-9.8 0.1c-3.1-0.4-6.1-1.1-9.1-1.6q-0.6-0.1-1.3-0.2q-0.6-0.2-1.3-0.4q-0.6-0.3-1.2-0.6q-0.6-0.3-1.2-0.7c-1.6-1.2-1.5-3.1-0.6-5c3-6.5 12.2-6.1 18.2-6.5c3.4-0.2 7-0.7 9.9-2.6c0.7-0.5 1.5-1.1 2.2-0.8c0.8 0.4 1 1.4 1 2.2q0.1 0.8 0 1.6q0 0.8-0.1 1.6q-0.1 0.8-0.2 1.6q-0.1 0.8-0.3 1.6z" />
				<path id="Layer" class="s8" d="m111.1 123.2c0 0-9.7-1.7-11.6-4.2q-0.4-0.4-0.7-0.9q-0.3-0.5-0.5-1q-0.3-0.6-0.5-1.1q-0.2-0.6-0.3-1.1q0.3 0.5 0.7 1q0.4 0.6 0.8 1q0.5 0.5 1 0.8q0.5 0.4 1.1 0.7c2.6 1.4 10 2.8 10 2.8z" />
				<path id="Layer" class="s4" d="m109.6 102.2c0 0.7-0.4 1.3-1.1 1.5c-0.6 0.2-1.3 0.1-1.8-0.4c-0.4-0.5-0.6-1.2-0.3-1.8c0.3-0.6 0.9-1 1.5-1q0.4 0 0.7 0.1q0.3 0.1 0.5 0.4q0.3 0.2 0.4 0.5q0.1 0.4 0.1 0.7z" />
				<path id="Layer" class="s13" d="m112 113.7q0 0.4-0.1 0.7q-0.1 0.2-0.3 0.5q-0.3 0.2-0.6 0.3q-0.2 0.2-0.6 0.2q-0.3 0-0.6-0.2q-0.3-0.1-0.5-0.3q-0.2-0.2-0.3-0.5q-0.1-0.3-0.1-0.7q0-0.3 0.1-0.6q0.1-0.3 0.3-0.5q0.2-0.2 0.5-0.3q0.3-0.2 0.6-0.2q0.3 0 0.6 0.2q0.3 0.1 0.5 0.3q0.3 0.2 0.4 0.5q0.1 0.3 0.1 0.6z" />
				<path id="Layer" class="s4" d="m107.5 96.9l-3.4 2.2q-0.3-0.3-0.3-0.8q-0.1-0.4 0-0.8q0.1-0.4 0.3-0.7q0.3-0.3 0.6-0.6q0.4-0.2 0.8-0.2q0.4-0.1 0.8 0q0.4 0.1 0.7 0.3q0.3 0.3 0.5 0.6z" />
				<path id="Layer" class="s4" d="m119.6 94.8l3.7 1.6q-0.2 0.4-0.5 0.7q-0.2 0.2-0.6 0.4q-0.4 0.1-0.8 0.1q-0.3 0-0.7-0.2q-0.4-0.1-0.6-0.4q-0.3-0.3-0.4-0.7q-0.2-0.3-0.2-0.7q0-0.4 0.1-0.8z" />
				<path id="Layer" class="s4" d="m121.5 101.7c0 0.6-0.4 1.2-1 1.4c-0.6 0.3-1.3 0.1-1.7-0.3c-0.5-0.5-0.6-1.2-0.3-1.8c0.2-0.6 0.8-1 1.4-1q0.4 0 0.7 0.2q0.3 0.1 0.5 0.3q0.2 0.3 0.3 0.6q0.2 0.3 0.1 0.6z" />
				<path id="Layer" class="s8" d="m113.4 98.9l5.8 9.7l-5.2 1.4l-0.6-11.1z" />
				<path id="Layer" class="s2" d="m20 144.7c1.7 0.9 8.8 5.9 12.6 6.3c1.6 0.2 2.1-0.1 2-0.5c-0.1-0.6-1.1-1.5-1.3-1.9c-0.5-0.8-3-4.2-2-6c1-1.8 1.8-0.1 4.2 2.2c2.4 2.4 4.8 3.2 6.9 5.9c2.1 2.7 2.8 7 6.3 10.1l13.7 9.4c0 0 6.5-29.8 9.3-33.3c3-3.7 15.8 4.3 13.1 16.1c-2.7 11.7-8.8 32.1-13.1 36.1c-2.7 2.5-8.6 0.1-15.8-6.3c-5.7-5.1-13.6-12.8-16.9-15.5c-3.3-2.7-10.2-4.2-13.4-6c-3.4-2-4.2-3.2-5.5-5.8c-1.2-2.5-0.6-6.5-1.4-8c-0.7-1.6-0.5-3.8 1.3-2.8z" />
				<path id="Layer" class="s12" d="m82.3 129.1c4.4 2.8 4.7 6.8 4.9 11.4q0 2-0.1 4q-0.2 2-0.5 4q-0.3 2-0.8 3.9q-0.5 2-1.1 3.9c-1.9 5.8-4.9 16.4-4.9 16.4c0 0-11.5 0.2-17.5-4.9c0 0 2.7-11.4 4.7-20c1.9-8.6 4.2-17.7 15.3-18.7z" />
				<path id="Layer" class="s8" d="m62.7 168.7q1.1 0.7 2.1 1.6q0.9 0.9 1.6 2q0.6 1.1 1.1 2.4q0.4 1.2 0.5 2.5c-0.6-1.5-2.5-5.2-5.6-7z" />
			</g>
			<g id="freepik--Outlet--inject-69">
				<path id="Layer" class="s7" d="m182.1 386.3l77.2 44.6v16.4l-77.2-44.5v-16.5z" />
				<path id="Layer" class="s15" d="m182.1 386.3l77.2 44.6v16.4l-77.2-44.5v-16.5z" />
				<path id="Layer" class="s7" d="m336.5 386.3v16.5l-77.2 44.5v-16.4l77.2-44.6z" />
				<path id="Layer" class="s10" d="m336.5 386.3v16.5l-77.2 44.5v-16.4l77.2-44.6z" />
				<path id="Layer" class="s7" d="m336.5 386.3l-77.2 44.6l-77.2-44.6l77.2-44.5l77.2 44.5z" />
				<path id="Layer" class="s9" d="m336.5 386.3l-77.2 44.6l-77.2-44.6l77.2-44.5l77.2 44.5z" />
				<path id="Layer" class="s9" d="m259.3 430.9l-77.2-44.6h8.1l69.1 39.9v4.7z" />
				<path id="Layer" class="s9" d="m259.3 341.8l77.2 44.5h-8.1l-69.1-39.8v-4.7z" />
				<path id="Layer" class="s7" d="m336.5 386.3l-77.2 44.6v-4.7l69.1-39.9h8.1z" />
				<path id="Layer" class="s7" d="m259.3 341.8v4.7l-69.1 39.8h-8.1l77.2-44.5z" />
				<path id="Layer" class="s3" d="m259.6 367l33.1 19.1c2.5 1.5 2.5 3.8 0 5.2l-24.7 14.3q-1 0.6-2.2 0.9q-1.1 0.2-2.3 0.2q-1.2 0-2.3-0.2q-1.2-0.3-2.2-0.9l-33.2-19.1c-2.4-1.4-2.4-3.8 0-5.2l24.8-14.3q1-0.5 2.2-0.8q1.1-0.3 2.3-0.3q1.1 0 2.3 0.3q1.1 0.3 2.2 0.8z" />
				<path id="Layer" class="s6" d="m265.8 406.5q-1.1 0.2-2.3 0.2q-1.2 0-2.3-0.2q-1.2-0.3-2.2-0.9l-32.3-18.6l23.9-13.8q1-0.6 2.2-0.8q1.1-0.3 2.3-0.3q1.1 0 2.3 0.3q1.1 0.2 2.2 0.8l32.3 18.6l-23.9 13.8q-1 0.6-2.2 0.9z" />
				<path id="Layer" class="s4" d="m239.5 386.4l14.6-8.4q0.2-0.1 0.4-0.2q0.2 0 0.4 0q0.2 0 0.5 0q0.2 0.1 0.4 0.2l1.8 1c0.5 0.3 0.5 0.7 0 1l-14.5 8.4q-0.2 0.1-0.5 0.1q-0.2 0.1-0.4 0.1q-0.2 0-0.4-0.1q-0.3 0-0.5-0.1l-1.7-1q-0.2-0.1-0.3-0.2q-0.1-0.2-0.1-0.3q0-0.2 0.1-0.3q0.1-0.2 0.2-0.2z" />
				<path id="Layer" class="s4" d="m261.2 398.9l14.5-8.4q0.2-0.1 0.4-0.1q0.3-0.1 0.5-0.1q0.2 0 0.4 0.1q0.2 0 0.4 0.1l1.8 1c0.5 0.3 0.5 0.8 0 1l-14.5 8.4q-0.2 0.1-0.4 0.2q-0.2 0-0.4 0q-0.3 0-0.5 0q-0.2-0.1-0.4-0.2l-1.8-1q-0.1-0.1-0.2-0.2q-0.1-0.1-0.1-0.3q0-0.2 0.1-0.3q0.1-0.1 0.2-0.2z" />
				<path id="Layer" class="s7" d="m225.7 419.6q0 0.4-0.2 0.7q-0.2 0.4-0.4 0.7q-0.3 0.3-0.6 0.6l-1.9 1.1q-0.4 0.2-0.8 0.2q-0.4 0.1-0.8 0.1q-0.4-0.1-0.8-0.2q-0.4-0.2-0.7-0.4q-1-0.6-1.7-1.5q-0.8-0.8-1.4-1.8q-0.6-1-0.9-2q-0.3-1.1-0.4-2.3q0-0.4 0-0.8q0.1-0.4 0.3-0.8q0.1-0.3 0.4-0.7q0.3-0.3 0.6-0.5l1.9-1.1q0.4-0.2 0.8-0.2q0.4-0.1 0.8-0.1q0.4 0.1 0.8 0.2q0.3 0.2 0.7 0.4q0.9 0.6 1.7 1.4q0.8 0.9 1.4 1.9q0.5 0.9 0.9 2q0.3 1.1 0.4 2.3q0 0.4-0.1 0.8z" />
				<path id="Layer" class="s9" d="m219.5 412.3q0.9 0.7 1.7 1.5q0.8 0.8 1.4 1.8q0.6 1 0.9 2.1q0.3 1.1 0.4 2.2c0 2.8-2 3.9-4.4 2.5q-1-0.6-1.7-1.4q-0.8-0.9-1.4-1.8q-0.6-1-0.9-2.1q-0.3-1.1-0.4-2.2c0-2.8 2-4 4.4-2.6z" />
			</g>
			<g id="freepik--Cable--inject-69">
				<path id="Layer" class="s3" d="m168.8 444.3q-1.9 0-3.7-0.2q-1.8-0.2-3.6-0.6q-1.7-0.5-3.4-1.1q-1.7-0.7-3.3-1.5l-51.2-29.6c-4.2-2.4-6.4-5.6-6.4-9.2c0-3.6 2.2-6.9 6.4-9.3l59.3-34.2c6.5-3.8 12-13.3 12-20.8v-187.7c0-0.5 0.2-1 0.6-1.4c0.3-0.4 0.8-0.6 1.4-0.6c0.5 0 1 0.2 1.4 0.6c0.4 0.4 0.6 0.9 0.6 1.4v187.7c0 9.1-6.2 19.7-14 24.3l-59.3 34.2c-2.9 1.6-4.4 3.7-4.4 5.8c0 2.1 1.5 4.1 4.4 5.7l51.2 29.6c6.6 3.8 17.3 3.8 24 0l37.7-21.8c0.5-0.3 1-0.4 1.6-0.2c0.5 0.1 0.9 0.4 1.2 0.9c0.3 0.5 0.4 1.1 0.2 1.6c-0.1 0.5-0.5 0.9-1 1.2l-37.7 21.8q-1.6 0.8-3.3 1.5q-1.8 0.6-3.5 1.1q-1.8 0.4-3.6 0.6q-1.8 0.2-3.6 0.2z" />
			</g>
			<g id="freepik--exclamation-marks--inject-69">
				<path id="Layer" class="s7" d="m78.9 78.3q0-0.1 0-0.2q0-0.1 0-0.2q0-0.1 0.1-0.2q0-0.1 0.1-0.2q0-0.1 0.1-0.1q0.1-0.1 0.2-0.2q0.1 0 0.2-0.1q0.1 0 0.2 0l4.8-1q0.1 0 0.2 0q0.1 0 0.2 0q0.1 0 0.2 0.1q0.1 0 0.2 0.1q0.1 0 0.2 0.1q0.1 0.1 0.1 0.2q0.1 0.1 0.1 0.2q0 0.1 0.1 0.2l0.7 3.9q0 0.1 0 0.2q0 0.1 0 0.2q0 0.1 0 0.2q-0.1 0.1-0.2 0.2q0 0-0.1 0.1q0 0.1-0.1 0.2q-0.1 0-0.2 0.1q-0.1 0-0.2 0l-4.9 1q-0.1 0-0.2 0q-0.1 0-0.2 0q-0.1-0.1-0.2-0.1q-0.1-0.1-0.2-0.1q-0.1-0.1-0.1-0.1q-0.1-0.1-0.2-0.2q0-0.1-0.1-0.2q0-0.1 0-0.2zm-4.1-21q0-0.3 0-0.5q0.1-0.2 0.2-0.4q0.1-0.1 0.3-0.2q0.1-0.2 0.3-0.2l4.9-0.9q0.1-0.1 0.2-0.1q0.1 0 0.2 0.1q0.1 0 0.2 0q0.1 0.1 0.2 0.1q0.1 0.1 0.2 0.2q0 0 0.1 0.1q0.1 0.1 0.1 0.2q0 0.1 0.1 0.2l3.1 16.7q0.1 0.1 0.1 0.2q0 0.1-0.1 0.2q0 0.1 0 0.2q-0.1 0.1-0.1 0.2q-0.1 0-0.1 0.1q-0.1 0.1-0.2 0.2q-0.1 0-0.2 0.1q-0.1 0-0.2 0l-4.9 1q-0.1 0-0.2 0q-0.1 0-0.2-0.1q-0.1 0-0.2 0q-0.1-0.1-0.2-0.1q0-0.1-0.1-0.1q-0.1-0.1-0.1-0.2q-0.1-0.1-0.1-0.2q-0.1-0.1-0.1-0.2z" />
				<path id="Layer" class="s7" d="m70.8 94.6q-0.1-0.1-0.2-0.3q-0.1-0.2-0.1-0.4q0-0.2 0.1-0.4q0.1-0.2 0.3-0.4l3.7-3.3q0-0.1 0.1-0.1q0.1-0.1 0.2-0.1q0.1 0 0.2 0q0.1 0 0.2 0q0.1 0 0.2 0q0.1 0 0.2 0.1q0.1 0 0.2 0.1q0.1 0 0.2 0.1l2.6 3q0.2 0.2 0.2 0.4q0.1 0.2 0.1 0.4q0 0.2-0.1 0.4q-0.1 0.2-0.3 0.3l-3.6 3.3q-0.1 0-0.2 0.1q-0.1 0-0.2 0.1q-0.1 0-0.2 0q-0.1 0-0.2 0q-0.1 0-0.2 0q-0.1 0-0.2-0.1q-0.1 0-0.1-0.1q-0.1 0-0.2-0.1zm-14.3-16q-0.1-0.1-0.1-0.2q-0.1-0.1-0.1-0.2q-0.1-0.1-0.1-0.2q0-0.1 0-0.2q0-0.1 0-0.2q0.1-0.1 0.1-0.2q0.1-0.1 0.1-0.2q0.1 0 0.2-0.1l3.7-3.3q0-0.1 0.1-0.1q0.1-0.1 0.2-0.1q0.1-0.1 0.2-0.1q0.1 0 0.2 0q0.1 0 0.2 0q0.1 0.1 0.2 0.1q0.1 0.1 0.2 0.1q0.1 0.1 0.2 0.2l11.3 12.6q0.1 0.1 0.1 0.2q0.1 0.1 0.1 0.2q0 0.1 0 0.2q0 0.1 0 0.2q0 0.1 0 0.2q0 0.1-0.1 0.2q0 0.1-0.1 0.2q0 0.1-0.1 0.1l-3.7 3.3q-0.1 0.1-0.2 0.2q-0.1 0-0.2 0q-0.1 0.1-0.2 0.1q-0.1 0-0.2 0q-0.1 0-0.2 0q-0.1-0.1-0.2-0.1q-0.1 0-0.1-0.1q-0.1-0.1-0.2-0.1z" />
				<g id="Layer" style="opacity: .6">
					<path id="Layer" class="s14" d="m70.8 94.6q-0.1-0.1-0.2-0.3q-0.1-0.2-0.1-0.4q0-0.2 0.1-0.4q0.1-0.2 0.3-0.4l3.7-3.3q0-0.1 0.1-0.1q0.1-0.1 0.2-0.1q0.1 0 0.2 0q0.1 0 0.2 0q0.1 0 0.2 0q0.1 0 0.2 0.1q0.1 0 0.2 0.1q0.1 0 0.2 0.1l2.6 3q0.2 0.2 0.2 0.4q0.1 0.2 0.1 0.4q0 0.2-0.1 0.4q-0.1 0.2-0.3 0.3l-3.6 3.3q-0.1 0-0.2 0.1q-0.1 0-0.2 0.1q-0.1 0-0.2 0q-0.1 0-0.2 0q-0.1 0-0.2 0q-0.1 0-0.2-0.1q-0.1 0-0.1-0.1q-0.1 0-0.2-0.1zm-14.3-16q-0.1-0.1-0.1-0.2q-0.1-0.1-0.1-0.2q-0.1-0.1-0.1-0.2q0-0.1 0-0.2q0-0.1 0-0.2q0.1-0.1 0.1-0.2q0.1-0.1 0.1-0.2q0.1 0 0.2-0.1l3.7-3.3q0-0.1 0.1-0.1q0.1-0.1 0.2-0.1q0.1-0.1 0.2-0.1q0.1 0 0.2 0q0.1 0 0.2 0q0.1 0.1 0.2 0.1q0.1 0.1 0.2 0.1q0.1 0.1 0.2 0.2l11.3 12.6q0.1 0.1 0.1 0.2q0.1 0.1 0.1 0.2q0 0.1 0 0.2q0 0.1 0 0.2q0 0.1 0 0.2q0 0.1-0.1 0.2q0 0.1-0.1 0.2q0 0.1-0.1 0.1l-3.7 3.3q-0.1 0.1-0.2 0.2q-0.1 0-0.2 0q-0.1 0.1-0.2 0.1q-0.1 0-0.2 0q-0.1 0-0.2 0q-0.1-0.1-0.2-0.1q-0.1 0-0.1-0.1q-0.1-0.1-0.2-0.1z" />
				</g>
			</g>
		</g>
	</g>
	<g id="freepik--error-404--inject-69">
		<g id="freepik--Text--inject-69">
			<path id="Layer" class="s7" d="m196.4 90.8q0.1 0 0.2 0q0 0 0.1 0q0 0 0.1 0.1q0 0 0.1 0.1q0 0 0.1 0q0 0.1 0 0.2q0 0 0 0.1q0.1 0 0.1 0.1v2.4q0 0.1-0.1 0.2q0 0 0 0.1q0 0 0 0.1q-0.1 0-0.1 0.1q-0.1 0-0.1 0.1q-0.1 0-0.1 0q-0.1 0.1-0.1 0.1q-0.1 0-0.2 0h-11q0 0-0.1 0q0 0-0.1-0.1q-0.1 0-0.1 0q-0.1-0.1-0.1-0.1q0-0.1-0.1-0.1q0-0.1 0-0.1q-0.1-0.1-0.1-0.1q0-0.1 0-0.2v-15q0 0 0-0.1q0 0 0.1-0.1q0 0 0-0.1q0.1 0 0.1-0.1q0 0 0.1-0.1q0 0 0.1 0q0.1-0.1 0.1-0.1q0.1 0 0.1 0h10.9q0.1 0 0.2 0.1q0.1 0 0.2 0.1q0.1 0.1 0.1 0.2q0.1 0.1 0.1 0.2v2.5q0 0.1 0 0.1q0 0.1 0 0.1q-0.1 0.1-0.1 0.2q0 0-0.1 0.1q0 0-0.1 0q0 0.1-0.1 0.1q0 0-0.1 0q-0.1 0-0.1 0h-7.2v2.5h6.7q0 0 0.1 0.1q0 0 0.1 0q0.1 0 0.1 0q0.1 0.1 0.1 0.1q0 0.1 0.1 0.1q0 0.1 0 0.1q0.1 0.1 0.1 0.1q0 0.1 0 0.2v2.4q0 0.1 0 0.2q0 0-0.1 0.1q0 0 0 0.1q-0.1 0-0.1 0.1q0 0-0.1 0.1q0 0-0.1 0q-0.1 0-0.1 0q-0.1 0.1-0.1 0.1h-6.7v2.6z" />
			<path id="Layer" fill-rule="evenodd" class="s7" d="m206.7 78.2q0.3 0 0.7 0q0.3 0 0.6 0.1q0.4 0 0.7 0.1q0.4 0.1 0.7 0.1q0.3 0.1 0.5 0.2q0.3 0.1 0.6 0.2q0.2 0.2 0.5 0.3q0.2 0.2 0.5 0.3q0.2 0.2 0.4 0.4q0.1 0.2 0.3 0.4q0.2 0.2 0.3 0.4q0.2 0.3 0.3 0.5q0.1 0.3 0.2 0.6q0.1 0.3 0.1 0.6q0.1 0.3 0.1 0.6q0 0.3 0 0.6q0 0.3 0 0.7q-0.1 0.4-0.1 0.8q-0.1 0.3-0.3 0.7q-0.1 0.3-0.3 0.7q-0.2 0.2-0.4 0.5q-0.2 0.3-0.5 0.5q-0.2 0.2-0.5 0.4q-0.3 0.2-0.6 0.3l2.9 5.5q0 0.1 0 0.1q0 0 0 0.1q0 0 0 0q0 0.1 0 0.1q0 0.1 0 0.2q0 0.1-0.1 0.2q-0.1 0-0.2 0.1q-0.1 0-0.2 0h-3.1q-0.1 0-0.2 0q-0.1 0-0.2 0q-0.1-0.1-0.1-0.1q-0.1 0-0.2-0.1q0 0-0.1-0.1q0 0-0.1-0.1q0-0.1 0-0.1q-0.1-0.1-0.1-0.1l-2.6-5h-2.2v5q0 0 0 0.1q0 0.1 0 0.1q-0.1 0.1-0.1 0.1q0 0.1-0.1 0.1q0 0.1-0.1 0.1q0 0-0.1 0.1q0 0-0.1 0q-0.1 0-0.1 0h-3q-0.1 0-0.1 0q-0.1 0-0.2 0q0-0.1-0.1-0.1q0 0-0.1-0.1q0 0 0-0.1q-0.1 0-0.1-0.1q0 0 0-0.1q0-0.1 0-0.1v-15q0-0.1 0-0.1q0-0.1 0-0.2q0 0 0.1-0.1q0 0 0-0.1q0.1 0 0.1 0q0.1-0.1 0.1-0.1q0.1 0 0.2 0q0-0.1 0.1 0zm-2.6 7h2.6q0.2 0 0.4-0.1q0.2 0 0.4 0q0.2-0.1 0.4-0.1q0.2-0.1 0.4-0.2q0.2-0.1 0.3-0.3q0.1-0.1 0.2-0.3q0.1-0.2 0.1-0.4q0.1-0.2 0-0.4q0.1-0.2 0-0.4q0-0.2-0.1-0.3q-0.1-0.2-0.2-0.4q-0.1-0.1-0.3-0.2q-0.2-0.1-0.4-0.2q-0.2-0.1-0.4-0.1q-0.2 0-0.4-0.1q-0.2 0-0.4 0h-2.7z" />
			<path id="Layer" fill-rule="evenodd" class="s7" d="m222.8 78.2q0.4 0 0.7 0q0.3 0 0.7 0.1q0.3 0 0.7 0.1q0.3 0.1 0.7 0.1q0.2 0.1 0.5 0.2q0.3 0.1 0.5 0.2q0.3 0.2 0.5 0.3q0.3 0.2 0.5 0.3q0.2 0.2 0.4 0.4q0.2 0.2 0.4 0.4q0.1 0.2 0.3 0.4q0.1 0.3 0.2 0.5q0.1 0.3 0.2 0.6q0.1 0.3 0.2 0.6q0 0.3 0 0.6q0.1 0.3 0.1 0.6q0 0.3-0.1 0.7q0 0.4-0.1 0.8q-0.1 0.3-0.2 0.7q-0.2 0.3-0.4 0.7q-0.1 0.2-0.4 0.5q-0.2 0.3-0.4 0.5q-0.3 0.2-0.6 0.4q-0.3 0.2-0.6 0.3l2.9 5.5q0 0.1 0 0.1q0.1 0 0.1 0.1q0 0 0 0q0 0.1 0 0.1q0 0.1 0 0.2q-0.1 0.1-0.2 0.2q0 0-0.1 0.1q-0.1 0-0.2 0h-3.2q-0.1 0-0.2 0q0 0-0.1 0q-0.1-0.1-0.2-0.1q-0.1 0-0.1-0.1q-0.1 0-0.1-0.1q-0.1 0-0.1-0.1q-0.1-0.1-0.1-0.1q0-0.1-0.1-0.1l-2.5-5h-2.2v5q0 0 0 0.1q0 0.1 0 0.1q0 0.1-0.1 0.1q0 0.1-0.1 0.1q0 0.1-0.1 0.1q0 0-0.1 0.1q0 0-0.1 0q0 0-0.1 0h-3q-0.1 0-0.2 0q0 0-0.1 0q0-0.1-0.1-0.1q0 0-0.1-0.1q0 0-0.1-0.1q0 0 0-0.1q0 0-0.1-0.1q0-0.1 0-0.1v-15q0-0.1 0-0.1q0.1-0.1 0.1-0.2q0 0 0-0.1q0.1 0 0.1-0.1q0.1 0 0.1 0q0.1-0.1 0.1-0.1q0.1 0 0.1 0q0.1-0.1 0.2 0zm-2.7 7h2.7q0.2 0 0.4-0.1q0.2 0 0.4 0q0.2-0.1 0.4-0.1q0.2-0.1 0.4-0.2q0.1-0.1 0.3-0.3q0.1-0.1 0.2-0.3q0.1-0.2 0.1-0.4q0-0.2 0-0.4q0-0.2 0-0.4q0-0.2-0.1-0.3q-0.1-0.2-0.2-0.4q-0.2-0.1-0.3-0.2q-0.2-0.1-0.4-0.2q-0.2-0.1-0.4-0.1q-0.2 0-0.4-0.1q-0.2 0-0.4 0h-2.7z" />
			<path id="Layer" fill-rule="evenodd" class="s7" d="m231.5 84.3q0-0.3 0.1-0.6q0-0.4 0.1-0.7q0-0.3 0.1-0.6q0.1-0.3 0.3-0.6q0.1-0.3 0.2-0.5q0.2-0.3 0.4-0.5q0.2-0.3 0.4-0.5q0.2-0.3 0.4-0.5q0.2-0.2 0.5-0.4q0.3-0.2 0.5-0.4q0.3-0.1 0.6-0.3q0.3-0.1 0.6-0.2q0.8-0.3 1.5-0.4q0.8-0.1 1.5-0.1q0.8 0 1.6 0.1q0.7 0.1 1.5 0.4q0.3 0.1 0.6 0.2q0.3 0.2 0.6 0.3q0.2 0.2 0.5 0.4q0.3 0.2 0.5 0.4q0.2 0.2 0.4 0.5q0.2 0.2 0.4 0.5q0.2 0.2 0.3 0.5q0.2 0.2 0.3 0.5q0.1 0.3 0.2 0.6q0.1 0.3 0.2 0.6q0.1 0.3 0.1 0.7q0.1 0.3 0.1 0.6c0 0.6 0 1.3 0 2.1c0 0.7 0 1.4 0 2q0 0.3-0.1 0.6q0 0.3-0.1 0.6q-0.1 0.3-0.2 0.6q-0.1 0.3-0.2 0.6q-0.1 0.3-0.3 0.6q-0.1 0.2-0.3 0.5q-0.2 0.3-0.4 0.5q-0.2 0.2-0.4 0.4q-0.2 0.3-0.5 0.4q-0.3 0.2-0.6 0.4q-0.2 0.2-0.5 0.3q-0.3 0.2-0.7 0.3q-0.7 0.2-1.4 0.3q-0.8 0.2-1.6 0.2q-0.7 0-1.5-0.2q-0.8-0.1-1.5-0.3q-0.3-0.1-0.6-0.3q-0.3-0.1-0.6-0.3q-0.3-0.2-0.5-0.4q-0.3-0.1-0.5-0.4q-0.3-0.2-0.5-0.4q-0.2-0.2-0.3-0.5q-0.2-0.3-0.4-0.5q-0.1-0.3-0.3-0.6q-0.1-0.3-0.2-0.6q-0.1-0.3-0.1-0.6q-0.1-0.3-0.2-0.6q0-0.3 0-0.6q0-1 0-2c0-0.7 0-1.5 0-2.1zm10.2 4q0-0.4 0.1-1c0-0.3 0-0.6 0-1q0-0.5 0-1c0-0.3 0-0.6-0.1-0.9q0-0.1 0-0.3q0-0.1-0.1-0.2q0-0.2 0-0.3q-0.1-0.1-0.1-0.3q-0.1-0.1-0.1-0.2q-0.1-0.1-0.2-0.2q0-0.1-0.1-0.2q-0.1-0.1-0.2-0.2q-0.1-0.1-0.2-0.2q-0.1-0.1-0.2-0.1q-0.1-0.1-0.2-0.2q-0.2 0-0.3-0.1q-0.1 0-0.3-0.1q-0.2 0-0.3 0q-0.2-0.1-0.3-0.1q-0.2 0-0.3 0q-0.2 0-0.4 0q-0.1 0-0.3 0.1q-0.1 0-0.3 0q-0.2 0.1-0.3 0.1q-0.1 0.1-0.2 0.1q-0.2 0.1-0.3 0.2q-0.1 0-0.2 0.1q-0.1 0.1-0.2 0.2q-0.1 0.1-0.2 0.2q-0.1 0.1-0.1 0.2q-0.1 0.1-0.2 0.2q0 0.1-0.1 0.2q0 0.2-0.1 0.3q0 0.1 0 0.3q-0.1 0.1-0.1 0.2q0 0.2 0 0.3q0 0.4-0.1 0.9q0 0.5 0 1c0 0.3 0 0.7 0 1q0 0.6 0.1 1q0 0.2 0.1 0.5q0 0.3 0.1 0.5q0.1 0.3 0.3 0.5q0.1 0.2 0.3 0.4q0.2 0.2 0.5 0.4q0.2 0.1 0.5 0.2q0.3 0.1 0.6 0.2q0.3 0 0.6 0q0.2 0 0.5 0q0.3-0.1 0.6-0.2q0.3-0.1 0.5-0.2q0.3-0.2 0.5-0.4q0.2-0.2 0.3-0.4q0.1-0.2 0.3-0.5q0.1-0.2 0.1-0.5q0.1-0.2 0.1-0.5z" />
			<path id="Layer" fill-rule="evenodd" class="s7" d="m255.7 78.2q0.3 0 0.6 0q0.4 0 0.7 0.1q0.4 0 0.7 0.1q0.4 0.1 0.7 0.1q0.3 0.1 0.5 0.2q0.3 0.1 0.6 0.2q0.2 0.2 0.5 0.3q0.2 0.2 0.4 0.3q0.3 0.2 0.4 0.4q0.2 0.2 0.4 0.4q0.2 0.2 0.3 0.4q0.1 0.3 0.3 0.5q0.1 0.3 0.2 0.6q0 0.3 0.1 0.6q0.1 0.3 0.1 0.6q0 0.3 0 0.6q0 0.3 0 0.7q-0.1 0.4-0.2 0.8q0 0.3-0.2 0.7q-0.1 0.3-0.3 0.7q-0.2 0.2-0.4 0.5q-0.3 0.3-0.5 0.5q-0.3 0.2-0.6 0.4q-0.3 0.2-0.6 0.3l2.9 5.5q0 0.1 0 0.1q0.1 0 0.1 0.1q0 0 0 0q0 0.1 0 0.1q0 0.1 0 0.1q0 0.1-0.1 0.1q0 0 0 0.1q0 0-0.1 0.1q0 0 0 0q-0.1 0.1-0.1 0.1q-0.1 0-0.1 0q-0.1 0-0.1 0h-3.2q-0.1 0-0.2 0q-0.1 0-0.1 0q-0.1-0.1-0.2-0.1q-0.1 0-0.2-0.1q0 0 0-0.1q-0.1 0-0.1-0.1q-0.1-0.1-0.1-0.1q0-0.1-0.1-0.1l-2.5-5h-2.2v5q0 0.1-0.1 0.2q0 0.1-0.1 0.2q-0.1 0.1-0.2 0.2q-0.1 0-0.2 0h-3q-0.2 0-0.3 0q-0.1-0.1-0.2-0.2q-0.1-0.1-0.1-0.2q-0.1-0.1-0.1-0.2v-15q0-0.1 0.1-0.3q0-0.1 0.1-0.2q0.1 0 0.2-0.1q0.1 0 0.3 0zm-2.7 7h2.7q0.2 0 0.4-0.1q0.2 0 0.4 0q0.2-0.1 0.4-0.1q0.2-0.1 0.4-0.2q0.1-0.1 0.3-0.3q0.1-0.1 0.2-0.3q0.1-0.2 0.1-0.4q0-0.2 0-0.4q0-0.2 0-0.4q0-0.2-0.1-0.3q-0.1-0.2-0.2-0.4q-0.2-0.1-0.3-0.2q-0.2-0.1-0.4-0.2q-0.2-0.1-0.4-0.1q-0.2 0-0.4-0.1q-0.2 0-0.4 0h-2.7z" />
			<path id="Layer" fill-rule="evenodd" class="s7" d="m277.5 94.5q-0.1 0-0.2 0q0 0-0.1-0.1q0 0-0.1 0q0-0.1-0.1-0.1q0-0.1-0.1-0.1q0-0.1 0-0.1q0-0.1 0-0.1q-0.1-0.1-0.1-0.1v-2.4h-7.3q0 0-0.1 0q-0.1 0-0.1-0.1q-0.1 0-0.1 0q-0.1-0.1-0.1-0.1q-0.1 0-0.1-0.1q0 0-0.1-0.1q0-0.1 0-0.1q0-0.1 0-0.2v-2.4q0-0.1 0-0.3q0-0.1 0.1-0.2q0-0.2 0.1-0.3q0-0.1 0.1-0.2l6.9-8.8q0.1 0 0.1-0.1q0.1 0 0.1-0.1q0.1 0 0.1 0q0.1-0.1 0.1-0.1q0.1 0 0.1 0q0.1-0.1 0.2-0.1q0 0 0.1 0q0 0 0.1 0h3.5q0.1 0 0.1 0q0.1 0 0.2 0.1q0 0 0.1 0q0 0.1 0.1 0.1q0 0 0 0.1q0.1 0 0.1 0.1q0 0.1 0 0.1q0 0.1 0 0.1v9h2q0.1 0 0.2 0q0 0 0.1 0q0 0 0.1 0.1q0 0 0.1 0q0 0.1 0.1 0.1q0 0.1 0 0.2q0 0 0 0.1q0.1 0 0.1 0.1v2.4q0 0.1-0.1 0.2q0 0 0 0.1q0 0.1 0 0.1q-0.1 0.1-0.1 0.1q-0.1 0-0.1 0.1q-0.1 0-0.1 0q-0.1 0.1-0.1 0.1q-0.1 0-0.2 0h-2v2.3q0 0.1 0 0.2q0 0 0 0.1q0 0-0.1 0.1q0 0 0 0.1q-0.1 0-0.1 0.1q-0.1 0-0.1 0q-0.1 0.1-0.2 0.1q0 0-0.1 0zm-0.5-6.7v-4.3l-3.3 4.3z" />
			<path id="Layer" fill-rule="evenodd" class="s7" d="m292.5 78q0.4 0 0.8 0q0.3 0 0.7 0.1q0.4 0.1 0.8 0.2q0.3 0.1 0.7 0.2q0.3 0.1 0.6 0.3q0.2 0.1 0.5 0.3q0.3 0.2 0.5 0.4q0.3 0.2 0.5 0.4q0.2 0.2 0.4 0.4q0.1 0.3 0.3 0.5q0.2 0.3 0.3 0.5q0.1 0.3 0.2 0.6q0.1 0.3 0.2 0.6q0.1 0.3 0.1 0.6q0.1 0.3 0.1 0.6q0.1 0.3 0.1 0.6q0 1 0 2.1q0 1.1 0 2q0 0.3-0.1 0.6q0 0.3-0.1 0.6q0 0.3-0.1 0.6q-0.1 0.3-0.2 0.6q-0.1 0.3-0.2 0.5q-0.1 0.3-0.3 0.6q-0.2 0.2-0.3 0.4q-0.2 0.3-0.4 0.5q-0.2 0.2-0.5 0.4q-0.2 0.2-0.5 0.4q-0.3 0.2-0.5 0.3q-0.3 0.1-0.6 0.3q-0.7 0.2-1.5 0.3q-0.7 0.2-1.5 0.2q-0.8 0-1.5-0.2q-0.8-0.1-1.5-0.3q-0.3-0.2-0.6-0.3q-0.2-0.1-0.5-0.3q-0.3-0.2-0.5-0.4q-0.3-0.2-0.5-0.4q-0.2-0.2-0.4-0.5q-0.1-0.2-0.3-0.4q-0.2-0.3-0.3-0.6q-0.1-0.2-0.2-0.5q-0.1-0.3-0.2-0.6q-0.1-0.3-0.1-0.6q-0.1-0.3-0.1-0.6q-0.1-0.3-0.1-0.6q0-1 0-2c0-0.7 0-1.4 0-2.1q0-0.3 0.1-0.6q0-0.3 0.1-0.6q0-0.3 0.1-0.6q0.1-0.3 0.2-0.6q0.1-0.3 0.2-0.6q0.1-0.2 0.3-0.5q0.2-0.2 0.3-0.5q0.2-0.2 0.4-0.4q0.2-0.2 0.5-0.4q0.2-0.2 0.5-0.4q0.3-0.2 0.5-0.3q0.3-0.2 0.6-0.3q0.4-0.1 0.7-0.2q0.4-0.1 0.8-0.2q0.4-0.1 0.7-0.1q0.4 0 0.8 0zm2.5 10.3q0.1-2 0-3.9q0-0.1 0-0.3q0-0.1-0.1-0.2q0-0.2 0-0.3q0-0.1-0.1-0.3q0-0.1 0-0.2q-0.1-0.1-0.1-0.2q-0.1-0.1-0.1-0.2q-0.1-0.1-0.2-0.2q-0.1-0.1-0.1-0.2q-0.1-0.1-0.2-0.1q-0.1-0.1-0.2-0.2q-0.1 0-0.2-0.1q-0.2 0-0.3-0.1q-0.2 0-0.3-0.1q-0.1 0-0.3 0q-0.1 0-0.3 0q-0.1 0-0.3 0q-0.1 0-0.3 0q-0.1 0.1-0.3 0.1q-0.1 0.1-0.3 0.1q-0.1 0.1-0.2 0.1q-0.1 0.1-0.2 0.2q-0.1 0-0.1 0.1q-0.1 0.1-0.2 0.2q-0.1 0.1-0.1 0.2q-0.1 0.1-0.1 0.2q-0.1 0.1-0.1 0.2q-0.1 0.1-0.1 0.2q0 0.2-0.1 0.3q0 0.1 0 0.3q0 0.1-0.1 0.2q0 0.2 0 0.3q0 0.5 0 1q0 0.5 0 0.9q0 0.5 0 1q0 0.5 0 1q0 0.1 0 0.3q0.1 0.1 0.1 0.2q0 0.2 0 0.3q0 0.1 0.1 0.3q0 0.1 0 0.2q0.1 0.1 0.1 0.2q0.1 0.1 0.2 0.2q0 0.1 0.1 0.2q0.1 0.1 0.2 0.2q0 0.1 0.1 0.1q0.1 0.1 0.2 0.2q0.1 0 0.2 0.1q0.2 0 0.3 0.1q0.2 0 0.3 0q0.2 0.1 0.3 0.1q0.2 0 0.3 0q0.2 0 0.3 0q0.2 0 0.3-0.1q0.1 0 0.3 0q0.1-0.1 0.3-0.1q0.1-0.1 0.2-0.1q0.1-0.1 0.2-0.2q0.1 0 0.2-0.1q0.1-0.1 0.1-0.2q0.1-0.1 0.2-0.2q0-0.1 0.1-0.2q0-0.1 0.1-0.2q0-0.1 0-0.2q0.1-0.2 0.1-0.3q0-0.1 0.1-0.3q0-0.1 0-0.2q0-0.2 0-0.3z" />
			<path id="Layer" fill-rule="evenodd" class="s7" d="m309.8 94.5q-0.1 0-0.2-0.1q-0.2 0-0.2-0.1q-0.1-0.1-0.2-0.2q0-0.1 0-0.2v-2.4h-7.4q0 0-0.1 0q0 0-0.1-0.1q-0.1 0-0.1 0q-0.1-0.1-0.1-0.1q0 0-0.1-0.1q0 0 0-0.1q-0.1-0.1-0.1-0.1q0-0.1 0-0.2v-2.4q0-0.1 0-0.3q0-0.1 0.1-0.2q0-0.2 0.1-0.3q0-0.1 0.1-0.2l7-8.8q0 0 0-0.1q0.1 0 0.1-0.1q0.1 0 0.1 0q0.1-0.1 0.2-0.1q0 0 0.1 0q0-0.1 0.1-0.1q0 0 0.1 0q0.1 0 0.1 0h3.5q0.2 0 0.3 0.1q0.1 0 0.2 0.1q0.1 0.1 0.1 0.2q0.1 0.1 0.1 0.2v9h2q0.1 0 0.2 0q0.1 0.1 0.2 0.2q0.1 0 0.1 0.2q0.1 0.1 0.1 0.2v2.4q0 0.1 0 0.2q0 0-0.1 0.1q0 0.1 0 0.1q-0.1 0.1-0.1 0.1q0 0-0.1 0.1q0 0-0.1 0q-0.1 0.1-0.1 0.1q-0.1 0-0.1 0h-2v2.3q0 0.2-0.1 0.3q0 0.1-0.1 0.2q-0.1 0.1-0.2 0.1q-0.1 0.1-0.3 0.1zm-0.5-6.7v-4.3l-3.4 4.3z" />
		</g>
	</g>
</svg>