<svg width="130" height="105" viewBox="0 0 130 105" fill="none" xmlns="http://www.w3.org/2000/svg">
<path d="M65.772 105C101.244 105 130 102.748 130 99.9696C130 97.1914 101.244 94.9392 65.772 94.9392C30.2998 94.9392 1.54395 97.1914 1.54395 99.9696C1.54395 102.748 30.2998 105 65.772 105Z" fill="#A9A9A9"/>
<path d="M120.33 90.6245L120.932 95.0501L116.718 95.4524L117.32 90.021L120.33 90.6245Z" fill="#A0616A"/>
<path d="M100.465 29.8729C100.465 29.8729 100.866 35.3043 100.866 35.5055C100.866 35.7067 98.0567 49.587 98.0567 49.587C98.0567 49.587 94.0435 57.2312 98.0567 57.0301C102.07 56.8289 100.866 49.7882 100.866 49.7882L105.08 38.1206L103.274 29.8729L100.465 29.8729Z" fill="#A0616A"/>
<path d="M107.086 90.6245L106.485 95.0501L110.698 95.4524L110.096 90.021L107.086 90.6245Z" fill="#A0616A"/>
<path d="M102.471 49.1847L101.468 50.5928C101.468 50.5928 100.866 56.6278 101.468 58.6394C102.07 60.6511 103.274 69.9046 103.274 70.5081C103.274 71.1116 103.475 71.5139 103.274 71.7151C103.073 71.9162 102.471 71.9163 102.873 72.3186C103.274 72.7209 103.274 73.9279 103.274 73.9279V74.9337L105.882 89.8199C105.882 89.8199 104.277 91.6304 105.481 91.6304C106.685 91.6304 111.1 91.6304 110.899 89.6187L110.498 89.4176C110.498 89.4176 109.896 76.1407 110.096 75.5372C110.297 74.9337 110.096 73.7267 110.096 73.7267C110.096 73.7267 109.695 73.1232 110.096 72.9221C110.498 72.7209 110.498 71.1116 110.498 71.1116L112.304 58.8406C112.304 58.8406 113.909 67.0883 114.912 67.893C115.916 68.6976 115.715 70.7093 115.715 70.7093L116.518 88.4117C116.518 88.4117 115.715 90.4234 116.518 90.8257C117.32 91.228 120.731 92.6362 120.932 90.6245C121.133 88.6129 122.136 71.1116 122.136 70.3069C122.136 69.5023 121.935 69.0999 122.136 68.4965C122.337 67.893 121.935 67.893 122.136 67.893C122.337 67.893 121.735 67.2895 121.735 66.8871V57.0301C121.735 57.0301 121.935 55.0184 122.136 54.6161C122.337 54.2138 121.935 53.8115 122.136 53.208C122.337 52.6045 121.735 50.5928 121.735 50.5928L112.705 48.1789L102.471 49.1847Z" fill="#001B29"/>
<path d="M109.494 94.2455C109.494 94.2455 110.498 93.2397 109.093 93.2397C108.191 93.2581 107.303 93.4636 106.484 93.8431L105.481 97.4641C105.481 97.4641 101.368 100.783 105.983 100.381C110.598 99.9787 109.896 100.28 109.896 100.28C109.896 100.28 111.3 99.8781 111.501 99.4757C111.702 99.0734 111.1 93.2397 111.1 93.2397C111.1 93.2397 110.498 94.849 109.494 94.2455Z" fill="#001B29"/>
<path d="M118.123 94.2455C118.123 94.2455 117.119 93.2397 118.524 93.2397C119.426 93.2581 120.314 93.4636 121.133 93.8432L122.136 97.4641C122.136 97.4641 126.25 100.783 121.634 100.381C117.019 99.9787 117.119 100.28 117.119 100.28C117.119 100.28 115.715 99.8781 115.514 99.4757C115.314 99.0734 116.518 93.2397 116.518 93.2397C116.518 93.2397 117.119 94.849 118.123 94.2455Z" fill="#001B29"/>
<path d="M105.08 13.9809C107.961 13.9809 110.297 11.6393 110.297 8.75066C110.297 5.86206 107.961 3.52039 105.08 3.52039C102.198 3.52039 99.8626 5.86206 99.8626 8.75066C99.8626 11.6393 102.198 13.9809 105.08 13.9809Z" fill="#A0616A"/>
<path d="M103.274 12.5728C103.274 12.5728 104.077 16.5961 104.077 17.1995C104.077 17.803 107.488 19.6135 107.488 19.6135L111.3 14.7856C111.3 14.7856 108.892 11.3658 108.892 10.5611L103.274 12.5728Z" fill="#A0616A"/>
<path d="M106.284 17.8031C106.284 17.8031 104.535 17.3364 104.005 16.5639C104.005 16.5639 98.458 22.0275 98.458 23.0333L102.873 30.8787C102.873 30.8787 102.873 33.695 103.274 33.8962C103.675 34.0974 103.274 33.8962 103.274 34.7008C103.274 35.5055 102.07 40.7358 102.471 41.5404C102.873 42.3451 103.274 41.7416 102.873 42.9486C102.471 44.1556 101.468 50.5928 101.468 50.5928C101.468 50.5928 105.08 49.3858 110.297 51.3975C115.514 53.4091 121.735 50.5928 121.735 50.5928C121.735 50.5928 120.129 46.9719 120.531 45.7649C120.932 44.5579 119.527 42.3451 119.527 42.3451L118.524 23.838C118.524 23.838 119.929 15.5902 118.925 15.1879L116.919 14.3833L110.493 13.5915C110.493 13.5915 108.892 17.6019 106.284 17.8031Z" fill="#D0CDE1"/>
<path d="M100.465 21.6252L98.458 23.0333C98.458 23.0333 97.4547 26.0508 98.458 27.4589C99.4613 28.8671 99.8626 30.8787 99.8626 30.8787L103.876 30.4764L100.465 21.6252Z" fill="#D0CDE1"/>
<path d="M101.096 3.22314L100.192 2.85993C100.192 2.85993 102.084 0.771465 104.716 0.953074L103.976 0.135838C103.976 0.135838 105.786 -0.590579 107.431 1.31628C108.296 2.31867 109.297 3.49693 109.921 4.82422H110.89L110.486 5.71712L111.901 6.61001L110.448 6.44963C110.586 7.22049 110.539 8.0131 110.311 8.76212L110.35 9.46787C110.35 9.46787 108.665 6.85525 108.665 6.49204V7.40007C108.665 7.40007 107.76 6.58285 107.76 6.03803L107.267 6.67366L107.02 5.67482L103.976 6.67366L104.47 5.85643L102.577 6.12885L103.318 5.13001C103.318 5.13001 101.179 6.31045 101.097 7.30929C101.014 8.30811 99.9447 9.57936 99.9447 9.57936L99.4511 8.67133C99.4511 8.67133 98.7106 4.58518 101.096 3.22314Z" fill="#001B29"/>
<path d="M102.307 43.7771H22.5677V99.9315H102.307V43.7771Z" fill="#F2F2F2"/>
<path d="M49.3016 65.2026H29.2801V100.241H49.3016V65.2026Z" fill="#A9A9A9"/>
<path d="M38.3768 67.3046H32.9835V72.3448H38.3768V67.3046Z" fill="#F2F2F2"/>
<path d="M45.5982 67.3046H40.205V72.3448H45.5982V67.3046Z" fill="#F2F2F2"/>
<path d="M38.3768 74.1776H32.9835V79.4011H38.3768V74.1776Z" fill="#F2F2F2"/>
<path d="M45.5982 74.1776H40.205V79.4011H45.5982V74.1776Z" fill="#F2F2F2"/>
<path d="M46.7555 86.357C47.4586 86.357 48.0286 85.7856 48.0286 85.0808C48.0286 84.3759 47.4586 83.8045 46.7555 83.8045C46.0524 83.8045 45.4825 84.3759 45.4825 85.0808C45.4825 85.7856 46.0524 86.357 46.7555 86.357Z" fill="#001321"/>
<path d="M95.5942 61.8765H56.0141V95.1746H95.5942V61.8765Z" fill="#A9A9A9"/>
<path d="M110.639 54.349H14.235L20.6627 40.8765L22.1012 37.86L23.9831 33.9152L25.4216 30.8987L27.0893 27.4042H103.044L104.029 30.8987L104.879 33.9152L105.992 37.86L106.842 40.8765L110.639 54.349Z" fill="#F2F2F2"/>
<path d="M58.7916 75.683H57.4028V84.2686H58.7916V75.683Z" fill="#001321"/>
<path d="M58.7916 76.9593H57.4028V78.0035H58.7916V76.9593Z" fill="#F2F2F2"/>
<path d="M58.7916 81.9482H57.4028V82.9924H58.7916V81.9482Z" fill="#F2F2F2"/>
<path d="M62.8422 75.683H59.486V84.2686H62.8422V75.683Z" fill="#001321"/>
<path d="M62.8422 76.9593H59.486V78.0035H62.8422V76.9593Z" fill="#F2F2F2"/>
<path d="M62.8422 81.9482H59.486V82.9924H62.8422V81.9482Z" fill="#F2F2F2"/>
<path d="M65.0411 75.683H63.6523V84.2686H65.0411V75.683Z" fill="#001321"/>
<path d="M65.0411 76.9593H63.6523V78.0035H65.0411V76.9593Z" fill="#F2F2F2"/>
<path d="M65.0411 81.9482H63.6523V82.9924H65.0411V81.9482Z" fill="#F2F2F2"/>
<path d="M67.1243 75.683H65.7355V84.2686H67.1243V75.683Z" fill="#001321"/>
<path d="M67.1243 76.9593H65.7355V78.0035H67.1243V76.9593Z" fill="#F2F2F2"/>
<path d="M67.1243 81.9482H65.7355V82.9924H67.1243V81.9482Z" fill="#F2F2F2"/>
<path d="M68.4625 75.7134L67.163 76.2045L70.1838 84.2382L71.4833 83.7471L68.4625 75.7134Z" fill="#001321"/>
<path d="M68.9116 76.9076L67.6121 77.3987L67.9795 78.3758L69.279 77.8847L68.9116 76.9076Z" fill="#F2F2F2"/>
<path d="M70.6669 81.5759L69.3674 82.067L69.7347 83.044L71.0343 82.553L70.6669 81.5759Z" fill="#F2F2F2"/>
<path d="M94.3211 75.683H90.9649V84.2686H94.3211V75.683Z" fill="#001321"/>
<path d="M94.3211 76.9593H90.9649V78.0035H94.3211V76.9593Z" fill="#F2F2F2"/>
<path d="M94.3211 81.9482H90.9649V82.9924H94.3211V81.9482Z" fill="#F2F2F2"/>
<path d="M90.1548 75.683H88.766V84.2686H90.1548V75.683Z" fill="#001321"/>
<path d="M90.1548 76.9593H88.766V78.0035H90.1548V76.9593Z" fill="#F2F2F2"/>
<path d="M90.1548 81.9482H88.766V82.9924H90.1548V81.9482Z" fill="#F2F2F2"/>
<path d="M88.0716 75.683H86.6829V84.2686H88.0716V75.683Z" fill="#001321"/>
<path d="M88.0716 76.9593H86.6829V78.0035H88.0716V76.9593Z" fill="#F2F2F2"/>
<path d="M88.0716 81.9482H86.6829V82.9924H88.0716V81.9482Z" fill="#F2F2F2"/>
<path d="M85.3446 75.7134L82.3238 83.7472L83.6233 84.2383L86.6441 76.2045L85.3446 75.7134Z" fill="#001321"/>
<path d="M84.8955 76.9076L84.5282 77.8846L85.8277 78.3757L86.1951 77.3987L84.8955 76.9076Z" fill="#F2F2F2"/>
<path d="M83.1402 81.5759L82.7729 82.5529L84.0724 83.044L84.4397 82.0669L83.1402 81.5759Z" fill="#F2F2F2"/>
<path d="M95.5942 84.2686H56.0141V85.0808H95.5942V84.2686Z" fill="#F2F2F2"/>
<path d="M80.5491 75.683H73.258V84.2686H80.5491V75.683Z" fill="#001321"/>
<path d="M78.7553 77.5394H75.0519V79.1637H78.7553V77.5394Z" fill="#F2F2F2"/>
<path d="M76.1513 61.8765H75.4569V69.3018H76.1513V61.8765Z" fill="#F2F2F2"/>
<path d="M75.8041 70.4621C76.4433 70.4621 76.9614 69.9426 76.9614 69.3018C76.9614 68.6611 76.4433 68.1416 75.8041 68.1416C75.165 68.1416 74.6468 68.6611 74.6468 69.3018C74.6468 69.9426 75.165 70.4621 75.8041 70.4621Z" fill="#F2F2F2"/>
<path d="M104.879 33.9152H23.9832L25.4216 30.8987H104.029L104.879 33.9152Z" fill="#001321"/>
<path d="M106.842 40.8765H20.6628L22.1012 37.86H105.992L106.842 40.8765Z" fill="#001321"/>
<path d="M115.314 23.4356C115.314 23.4356 114.152 26.4311 114.394 29.3949C114.439 29.9255 114.617 30.4361 114.912 30.8787L100.676 37.6541C100.676 37.6541 94.2441 38.3218 95.8494 41.1381C97.4547 43.9544 103.274 39.7299 103.274 39.7299C103.274 39.7299 118.524 37.5171 119.728 35.3043C120.932 33.0915 121.735 23.838 121.735 23.838L115.314 23.4356Z" fill="#A0616A"/>
<path d="M115.916 15.1879H118.925C118.925 15.1879 121.133 15.5902 121.735 19.6135C122.337 23.6368 122.939 24.6426 122.337 24.6426C121.735 24.6426 114.511 24.4415 114.511 24.2403C114.511 24.0391 115.916 15.1879 115.916 15.1879Z" fill="#D0CDE1"/>
<path d="M15.4394 75.282C23.9664 75.282 30.8789 68.3522 30.8789 59.8039C30.8789 51.2555 23.9664 44.3257 15.4394 44.3257C6.91247 44.3257 0 51.2555 0 59.8039C0 68.3522 6.91247 75.282 15.4394 75.282Z" fill="white"/>
<path d="M15.4394 73.1151C22.7726 73.1151 28.7173 67.1554 28.7173 59.8039C28.7173 52.4523 22.7726 46.4927 15.4394 46.4927C8.10624 46.4927 2.16151 52.4523 2.16151 59.8039C2.16151 67.1554 8.10624 73.1151 15.4394 73.1151Z" fill="#001321"/>
<path d="M14.8032 67.6587V65.7213C13.8263 65.7022 12.8157 65.3568 12.2262 64.8772L12.6304 63.5921C13.3309 64.1183 14.1805 64.4072 15.0558 64.4168C16.2517 64.4168 17.0602 63.6304 17.0602 62.537C17.0602 61.4819 16.4033 60.8298 15.1569 60.2543C13.4389 59.487 12.3778 58.6046 12.3778 56.9358C12.3778 55.3436 13.3715 54.1351 14.9211 53.8474V51.91H15.9654V53.7707C16.7441 53.7814 17.5036 54.0142 18.155 54.442L17.7339 55.7081C17.1091 55.2794 16.3688 55.0518 15.6117 55.0559C14.3148 55.0559 13.8263 55.9382 13.8263 56.7056C13.8263 57.703 14.4495 58.2018 15.9149 58.8924C17.6497 59.698 18.5256 60.6955 18.5256 62.4027C18.5256 63.9181 17.5992 65.3377 15.8643 65.6636V67.6587H14.8032Z" fill="white"/>
</svg>
