<svg id="Layer_1" data-name="Layer 1" xmlns="http://www.w3.org/2000/svg" viewBox="0 0 633.43 442.43"><defs><style>.cls-1{fill:#f2f2f2;}.cls-2{fill:#fff;}.cls-3{fill:#3f3d56;}.cls-4{fill:#92c1dc;}.cls-5{isolation:isolate;opacity:0.2;}</style></defs><path class="cls-1" d="M144.78,136.52q2,1.26,4,2.56a336,336,0,0,1,23.45,109.5q.31,6.51.31,13a326.14,326.14,0,0,1-14,95.84q-.74,2.46-1.52,4.89c-.37,1.16-.75,2.34-1.16,3.49-.43.6-.86,1.18-1.29,1.76l-.09.09c-.17.24-.35.47-.5.7-.75,1-1.5,2-2.24,3l.62,0,1.57.1h0c-.53,0-1.07,0-1.6-.06-.19,0-.4,0-.6,0l-.54,0c-22.6-.61-45.73-1.74-66.29-11C63.32,350.74,45.06,329.81,46,306.23a42.2,42.2,0,0,1,1.4-9.14c.33-1.25.72-2.47,1.15-3.69a44.55,44.55,0,0,1,76.44-14c-6.17-24.25-32.66-36.62-56.51-44.14S17.74,219.89,5.55,198c-6.81-12.15-7-26.32-2.53-39.4.13-.39.27-.79.43-1.18a65,65,0,0,1,31.35-35.6c27.28-13.5,60.42-8.74,88.38,3.32A161.51,161.51,0,0,1,144.78,136.52Z" transform="translate(0 -13.32)"/><path class="cls-2" d="M66.59,293.5a100.33,100.33,0,0,1,57.73,25.15,102.69,102.69,0,0,1,29.19,45.79c.31,1,.6,2,.87,3,.54-1,1.07-2.08,1.59-3.13.34-.67.68-1.35,1-2-.37,1.16-.75,2.34-1.16,3.49-.43.6-.86,1.18-1.29,1.76l-.09.09c-.17.24-.35.47-.5.7-.75,1-1.5,2-2.24,3l.62,0,1.57.1h0c-.53,0-1.07,0-1.6-.06-.19,0-.4,0-.6,0-.06-.3-.14-.61-.23-.91A96.92,96.92,0,0,0,47.39,297.09c.33-1.25.72-2.47,1.15-3.69A102.65,102.65,0,0,1,66.59,293.5Z" transform="translate(0 -13.32)"/><path class="cls-2" d="M137.84,203.82a110.56,110.56,0,0,1,22.6,22.76,91.51,91.51,0,0,1,8.64,14.67c1.14,2.38,2.18,4.84,3.12,7.33q.31,6.51.31,13a96,96,0,0,0-2.91-9.67c-.59-1.74-1.25-3.44-1.95-5.13-7.87-18.88-22.11-33.79-38.91-45.13-18-12.13-38.3-21.24-58.86-28a271.55,271.55,0,0,0-65.07-13,2,2,0,0,1-1.79-2,1.62,1.62,0,0,1,.43-1.18,1.37,1.37,0,0,1,1.19-.38c2.73.2,5.46.42,8.18.7A275.51,275.51,0,0,1,79.19,173.1C99.85,180.64,120.3,190.42,137.84,203.82Z" transform="translate(0 -13.32)"/><circle class="cls-1" cx="25.5" cy="78.47" r="7.58"/><rect class="cls-2" x="147.05" y="148.43" width="344" height="293"/><path class="cls-3" d="M492.05,455.76h-346v-295h346Zm-344-2h342v-291h-342Z" transform="translate(0 -13.32)"/><rect class="cls-4" x="276.05" y="205.43" width="86" height="236"/><rect class="cls-4" x="276.05" y="205.43" width="86" height="236"/><polygon class="cls-5" points="148.05 169.93 148.05 217.47 491.05 239.43 490.04 180.77 148.05 169.93"/><rect class="cls-2" x="127.05" y="121.43" width="384" height="84"/><path class="cls-3" d="M512.05,219.76h-386v-86h386Zm-384-2h382v-82h-382Z" transform="translate(0 -13.32)"/><rect class="cls-4" x="276.05" y="113.43" width="86" height="91"/><path class="cls-4" d="M315.16,47.57c24,33.81,1.39,88.19,1.39,88.19s-61.63-.44-85.68-34.25-1.39-88.19-1.39-88.19S291.12,13.76,315.16,47.57Z" transform="translate(0 -13.32)"/><path class="cls-4" d="M320.25,47.41c-22.7,33.65-1.31,87.78-1.31,87.78s58.2-.44,80.9-34.09,1.31-87.78,1.31-87.78S343,13.76,320.25,47.41Z" transform="translate(0 -13.32)"/><circle class="cls-3" cx="259.05" cy="50.43" r="9"/><circle class="cls-3" cx="313.05" cy="141.43" r="9"/><circle class="cls-3" cx="313.05" cy="338.43" r="9"/><circle class="cls-3" cx="283.05" cy="83.43" r="6"/><circle class="cls-3" cx="373.05" cy="32.43" r="6"/><circle class="cls-3" cx="334.05" cy="173.43" r="6"/><circle class="cls-3" cx="298.05" cy="251.43" r="6"/><circle class="cls-3" cx="329.05" cy="278.43" r="6"/><circle class="cls-3" cx="322.05" cy="391.43" r="6"/><rect class="cls-2" x="439.22" y="286" width="183.04" height="155.9"/><path class="cls-3" d="M622.79,455.76H438.69v-157h184.1Zm-183-1.07h182V299.85h-182Z" transform="translate(0 -13.32)"/><rect class="cls-4" x="507.86" y="316.33" width="45.76" height="125.57"/><rect class="cls-4" x="507.86" y="316.33" width="45.76" height="125.57"/><polygon class="cls-5" points="439.75 297.44 439.75 322.73 622.26 334.42 621.72 303.21 439.75 297.44"/><rect class="cls-2" x="428.58" y="271.63" width="204.32" height="44.69"/><path class="cls-3" d="M633.43,330.18H428.05V284.42H633.43Zm-204.32-1.06H632.37V285.49H429.11Z" transform="translate(0 -13.32)"/><rect class="cls-4" x="507.86" y="267.38" width="45.76" height="48.42"/><path class="cls-4" d="M532.4,238.3c13.74,17.72.8,46.22.8,46.22s-35.21-.23-49-17.95-.79-46.23-.79-46.23S518.67,220.57,532.4,238.3Z" transform="translate(0 -13.32)"/><path class="cls-4" d="M531.38,238.48c-12.08,17.91-.7,46.71-.7,46.71s31-.24,43.05-18.14.69-46.71.69-46.71S543.46,220.58,531.38,238.48Z" transform="translate(0 -13.32)"/><circle class="cls-3" cx="498.81" cy="233.86" r="4.79"/><circle class="cls-3" cx="527.55" cy="282.27" r="4.79"/><circle class="cls-3" cx="527.55" cy="387.1" r="4.79"/><circle class="cls-3" cx="511.58" cy="264.74" r="3.19" transform="translate(168.32 713.98) rotate(-80.78)"/><circle class="cls-3" cx="559.47" cy="224.28" r="3.19"/><circle class="cls-3" cx="538.72" cy="299.3" r="3.19"/><circle class="cls-3" cx="519.56" cy="340.8" r="3.19"/><circle class="cls-3" cx="536.06" cy="355.17" r="3.19"/><circle class="cls-3" cx="532.33" cy="415.3" r="3.19"/><circle class="cls-2" cx="99.07" cy="374.73" r="14.72"/><path class="cls-2" d="M110.76,415.27a9.57,9.57,0,0,1-18.84,3.43h0v0c-.94-5.2,3.08-7,8.28-8S109.82,410.07,110.76,415.27Z" transform="translate(0 -13.32)"/></svg>